<svg width="75" height="75" viewBox="0 0 75 75" fill="none" xmlns="http://www.w3.org/2000/svg">
<path d="M2 29.3923H72.7816" stroke="#F37021" stroke-miterlimit="10" stroke-linecap="round"/>
<path d="M66.6524 29.3923V31.5924C66.6524 40.7687 59.2134 48.2077 50.0372 48.2077H23.3706C14.1942 48.2077 6.75537 40.7687 6.75537 31.5924V29.3923" stroke="#F37021" stroke-miterlimit="10" stroke-linecap="round"/>
<path d="M52.1743 48.2089L55.3102 53.8087" stroke="#F37021" stroke-miterlimit="10" stroke-linecap="round"/>
<path d="M21.9245 48.2089L18.7886 53.8087" stroke="#F37021" stroke-miterlimit="10" stroke-linecap="round"/>
<path d="M7.11377 35.042H31.9399" stroke="#F37021" stroke-miterlimit="10" stroke-linecap="round"/>
<path d="M57.3495 27.812C57.3495 25.1544 55.195 23 52.5375 23C49.88 23 47.7256 25.1544 47.7256 27.812" stroke="#F37021" stroke-miterlimit="10" stroke-linecap="round"/>
<path d="M43.2296 27.5469C43.2296 26.3655 42.2718 25.4077 41.0904 25.4077C39.9089 25.4077 38.9512 26.3655 38.9512 27.5469" stroke="#F37021" stroke-miterlimit="10" stroke-linecap="round"/>
<path d="M18.4595 27.8981C18.4595 27.3083 17.9814 26.8302 17.3916 26.8302C16.8018 26.8302 16.3237 27.3083 16.3237 27.8981" stroke="#F37021" stroke-miterlimit="10" stroke-linecap="round"/>
<path d="M61.7994 27.8981C61.7994 27.3083 61.3213 26.8302 60.7315 26.8302C60.1417 26.8302 59.6636 27.3083 59.6636 27.8981" stroke="#F37021" stroke-miterlimit="10" stroke-linecap="round"/>
<path d="M55.0797 27.0727C55.0797 25.8913 54.1219 24.9335 52.9404 24.9335" stroke="#F37021" stroke-miterlimit="10" stroke-linecap="round"/>
</svg>
