<svg width="75" height="75" viewBox="0 0 75 75" fill="none" xmlns="http://www.w3.org/2000/svg">
<path d="M37.9167 48.238C43.1891 48.238 47.4633 43.9639 47.4633 38.6915C47.4633 33.419 43.1891 29.1449 37.9167 29.1449C32.6443 29.1449 28.3701 33.419 28.3701 38.6915C28.3701 43.9639 32.6443 48.238 37.9167 48.238Z" stroke="#F37021" stroke-miterlimit="10" stroke-linecap="round"/>
<path d="M37.9166 57.4813C48.2952 57.4813 56.7087 49.0678 56.7087 38.6892C56.7087 28.3106 48.2952 19.8971 37.9166 19.8971C27.538 19.8971 19.1245 28.3106 19.1245 38.6892C19.1245 49.0678 27.538 57.4813 37.9166 57.4813Z" stroke="#F37021" stroke-miterlimit="10" stroke-linecap="round"/>
<path d="M63.499 60.9983V44.2664V16C63.499 16 70.1951 25.2726 69.2576 44.2664H65.2894" stroke="#F37021" stroke-miterlimit="10" stroke-linecap="round" stroke-linejoin="round"/>
<path d="M10.4297 32.4032V61.0053" stroke="#F37021" stroke-miterlimit="10" stroke-linecap="round"/>
<path d="M4.10059 16.6345V27.2495C4.10059 30.0963 6.40839 32.4041 9.25522 32.4041H11.4C14.2468 32.4041 16.5546 30.0963 16.5546 27.2495V16.6345" stroke="#F37021" stroke-miterlimit="10" stroke-linecap="round"/>
<path d="M10.4297 26.8427V16.6345" stroke="#F37021" stroke-miterlimit="10" stroke-linecap="round"/>
</svg>
