<svg width="75" height="75" viewBox="0 0 75 75" fill="none" xmlns="http://www.w3.org/2000/svg">
<path d="M16.8003 46.3998H32.8002V50.3998H42.4002V39.5999H51.2002V46.3998H59.2001" stroke="#F37021" stroke-linecap="round"/>
<path d="M63.6001 21.5C63.324 21.5 63.1001 21.7239 63.1001 22C63.1001 22.2761 63.324 22.5 63.6001 22.5V21.5ZM74.0001 22H74.5001V21.5H74.0001V22ZM74.0001 53.9999V54.4999H74.5001V53.9999H74.0001ZM63.6001 53.9999H63.1001V54.4999H63.6001V53.9999ZM64.1001 22.0015V21.5015H63.1001V22.0015H64.1001ZM63.6001 22.5H74.0001V21.5H63.6001V22.5ZM73.5001 22V53.9999H74.5001V22H73.5001ZM74.0001 53.4999H63.6001V54.4999H74.0001V53.4999ZM64.1001 53.9999V50.0387H63.1001V53.9999H64.1001ZM64.1001 50.0387V22.0015H63.1001V50.0387H64.1001Z" fill="#F37021"/>
<path d="M2 21.5C1.72386 21.5 1.5 21.7239 1.5 22C1.5 22.2761 1.72386 22.5 2 22.5V21.5ZM12.4 22H12.9V21.5H12.4V22ZM12.4 53.9999V54.4999H12.9V53.9999H12.4ZM2 53.9999H1.5V54.4999H2V53.9999ZM2.5 22.0015V21.5015H1.5V22.0015H2.5ZM2 22.5H12.4V21.5H2V22.5ZM11.9 22V53.9999H12.9V22H11.9ZM12.4 53.4999H2V54.4999H12.4V53.4999ZM2.5 53.9999V50.0387H1.5V53.9999H2.5ZM2.5 50.0387V22.0015H1.5V50.0387H2.5Z" fill="#F37021"/>
<path d="M61.0318 38.3999V53.7469H14.8003V22H22.4003" stroke="#F37021" stroke-miterlimit="10" stroke-linecap="round"/>
<path d="M21.6729 22H61.0314V38.9733" stroke="#F37021" stroke-miterlimit="10" stroke-linecap="round"/>
<path d="M3.2002 46.3999H11.2002" stroke="#F37021" stroke-linecap="round"/>
<path d="M64.7998 46.3999H72.7998" stroke="#F37021" stroke-linecap="round"/>
</svg>
