<svg width="75" height="75" viewBox="0 0 75 75" fill="none" xmlns="http://www.w3.org/2000/svg">
<path d="M24.4153 32.0406C23.9596 31.1719 23.7017 30.1832 23.7017 29.1342C23.7017 25.6742 26.5066 22.8694 29.9664 22.8694C33.4263 22.8694 36.2312 25.6743 36.2312 29.1342C36.2312 32.594 33.4264 35.3989 29.9664 35.3989" stroke="#F37021" stroke-miterlimit="10" stroke-linecap="round"/>
<path d="M29.9668 35.4012V40.4929" stroke="#F37021" stroke-miterlimit="10" stroke-linecap="round"/>
<path d="M29.9354 54.9188H6.6085C3.72202 54.9188 2.9644 50.9298 5.64985 49.8714L28.9923 40.6726C29.599 40.4335 30.2731 40.4297 30.8824 40.662L55.0125 49.8608C57.725 50.8949 56.984 54.9187 54.0811 54.9187H29.9354V54.9188Z" stroke="#F37021" stroke-miterlimit="10" stroke-linecap="round"/>
<path d="M39.383 30.1712C38.9274 29.3025 38.6694 28.3138 38.6694 27.2648C38.6694 23.8048 41.4743 21 44.9342 21C48.3941 21 51.1989 23.8049 51.1989 27.2648C51.1989 30.7246 48.3942 33.5295 44.9342 33.5295" stroke="#F37021" stroke-miterlimit="10" stroke-linecap="round"/>
<path d="M44.9341 33.532V38.6236" stroke="#F37021" stroke-miterlimit="10" stroke-linecap="round"/>
<path d="M39.54 40.6457L43.9604 38.8033C44.5671 38.5642 45.2412 38.5605 45.8505 38.7927L69.9806 47.9916C72.6931 49.0256 71.9521 53.0494 69.0492 53.0494H60.1212" stroke="#F37021" stroke-miterlimit="10" stroke-linecap="round"/>
</svg>
