<svg width="75" height="75" viewBox="0 0 75 75" fill="none" xmlns="http://www.w3.org/2000/svg">
<path d="M61 53.6666H14V64.5128H61V53.6666Z" stroke="#F37021" stroke-miterlimit="10" stroke-linecap="round"/>
<path d="M14 47.641H61" stroke="#F37021" stroke-miterlimit="10" stroke-linecap="round"/>
<path d="M37.8545 29.2722V47.6539" stroke="#F37021" stroke-miterlimit="10" stroke-linecap="round"/>
<path d="M37.7053 29.2712C40.5116 29.2712 42.7865 26.9962 42.7865 24.1899C42.7865 21.3836 40.5116 19.1086 37.7053 19.1086C34.899 19.1086 32.624 21.3836 32.624 24.1899C32.624 26.9962 34.899 29.2712 37.7053 29.2712Z" stroke="#F37021" stroke-miterlimit="10" stroke-linecap="round"/>
<path d="M25.8988 18.3649C25.8988 18.3649 19.638 23.9912 25.8988 30.3209" stroke="#F37021" stroke-miterlimit="10" stroke-linecap="round"/>
<path d="M22.0559 11.4872C22.0559 11.4872 7.49962 23.5839 22.0559 37.1926" stroke="#F37021" stroke-miterlimit="10" stroke-linecap="round"/>
<path d="M50.606 18.3649C50.606 18.3649 56.8667 23.9912 50.606 30.3209" stroke="#F37021" stroke-miterlimit="10" stroke-linecap="round"/>
<path d="M54.4482 11.4872C54.4482 11.4872 69.0045 23.5839 54.4482 37.1926" stroke="#F37021" stroke-miterlimit="10" stroke-linecap="round"/>
<path d="M26.0513 60.0548C26.7169 60.0548 27.2564 59.5152 27.2564 58.8497C27.2564 58.1841 26.7169 57.6445 26.0513 57.6445C25.3857 57.6445 24.8462 58.1841 24.8462 58.8497C24.8462 59.5152 25.3857 60.0548 26.0513 60.0548Z" fill="#F37021"/>
<path d="M54.9742 60.0548C55.6397 60.0548 56.1793 59.5152 56.1793 58.8497C56.1793 58.1841 55.6397 57.6445 54.9742 57.6445C54.3086 57.6445 53.769 58.1841 53.769 58.8497C53.769 59.5152 54.3086 60.0548 54.9742 60.0548Z" fill="#F37021"/>
<path d="M20.0254 60.0548C20.691 60.0548 21.2306 59.5152 21.2306 58.8497C21.2306 58.1841 20.691 57.6445 20.0254 57.6445C19.3599 57.6445 18.8203 58.1841 18.8203 58.8497C18.8203 59.5152 19.3599 60.0548 20.0254 60.0548Z" fill="#F37021"/>
</svg>
