<?xml version="1.0" encoding="utf-8"?><svg viewBox="0 0 448 512" xmlns="http://www.w3.org/2000/svg" xmlns:xlink="http://www.w3.org/1999/xlink"><style>:root>svg{display:none}:root>svg:target{display:block}</style><svg viewBox="0 0 20 20" id="aaaa" xmlns="http://www.w3.org/2000/svg"><path fill-rule="evenodd" clip-rule="evenodd" d="M.25 10C.25 4.615 4.615.25 10 .25s9.75 4.365 9.75 9.75-4.365 9.75-9.75 9.75S.25 15.385.25 10ZM7 6.25a.75.75 0 0 0 0 1.5h.009a.75.75 0 1 0 0-1.5H7Zm6 0a.75.75 0 0 0 0 1.5h.009a.75.75 0 0 0 0-1.5H13ZM5.75 10a.75.75 0 0 0-1.5 0c0 .968.542 2.378 1.464 3.531.942 1.177 2.387 2.219 4.286 2.219 1.857 0 3.305-.877 4.271-2.014.952-1.12 1.479-2.539 1.479-3.736a.75.75 0 0 0-1.5 0c0 .803-.373 1.884-1.121 2.764-.733.863-1.786 1.486-3.129 1.486-1.301 0-2.356-.708-3.114-1.656C6.108 11.622 5.75 10.532 5.75 10Z"/></svg><svg viewBox="0 0 448 512" id="bell" xmlns="http://www.w3.org/2000/svg"><path d="M256 32v17.88C328.5 61.39 384 124.2 384 200v33.4c0 45.4 15.5 89.5 43.8 125l14.9 18.6c5.8 7.2 6.9 17.1 2.9 25.4-4 8.3-12.4 13.6-21.6 13.6H24c-9.23 0-17.635-5.3-21.631-13.6A24.019 24.019 0 0 1 5.26 377l14.91-18.6C48.54 322.9 64 278.8 64 233.4V200c0-75.8 55.5-138.61 128-150.12V32c0-17.67 14.3-32 32-32s32 14.33 32 32zm-40 64c-57.4 0-104 46.6-104 104v33.4c0 47.9-13.88 94.6-39.69 134.6H375.7c-25.8-40-39.7-86.7-39.7-134.6V200c0-57.4-46.6-104-104-104h-16zm72 352c0 16.1-6.7 33.3-18.7 45.3S240.1 512 224 512c-17 0-33.3-6.7-45.3-18.7S160 464.1 160 448h128z"/></svg><svg fill="none" viewBox="0 0 16 12" id="bell-min" xmlns="http://www.w3.org/2000/svg"><path d="M2.121 9.31h5.444v.808H.975v.907h14.05v-.907H8.435V9.31h5.469v-.454a6.27 6.27 0 0 0-1.729-4.36c-1.012-1.058-2.326-1.684-3.74-1.791v-.824H9.255V.975h-2.51v.907H7.565v.824c-1.414.107-2.728.733-3.74 1.79a6.27 6.27 0 0 0-1.729 4.361v.454h.025Zm10.894-.906H2.985C3.205 5.714 5.372 3.596 8 3.596c2.628 0 4.794 2.117 5.015 4.808Z" fill="#000" stroke="#000" stroke-width=".05" opacity=".5"/></svg><svg fill="none" viewBox="0 0 14 8" id="chevronDown" xmlns="http://www.w3.org/2000/svg"><path opacity=".8" d="m1 1 6 6 6-6" stroke="#100F0F" stroke-linecap="round" stroke-linejoin="round"/></svg><svg fill="none" viewBox="0 0 8 5" id="chevronDownSmall" xmlns="http://www.w3.org/2000/svg"><path opacity=".8" d="m1 1 3 3 3-3" stroke="#000" stroke-linecap="round" stroke-linejoin="round"/></svg><svg fill="none" viewBox="0 0 14 8" id="chevronUp" xmlns="http://www.w3.org/2000/svg"><path opacity=".8" d="m1 7 6-6 6 6" stroke="#100F0F" stroke-linecap="round" stroke-linejoin="round"/></svg><svg fill="none" viewBox="0 0 8 5" id="chevronUpSmall" xmlns="http://www.w3.org/2000/svg"><path opacity=".8" d="m1 4 3-3 3 3" stroke="#000" stroke-linecap="round" stroke-linejoin="round"/></svg><svg fill="none" viewBox="0 0 16 16" id="close" xmlns="http://www.w3.org/2000/svg"><g opacity=".8" stroke="#100F0F" stroke-linecap="round" clip-path="url(#ha)"><path d="m1 1 14 14M15 1 1 15"/></g><defs><clipPath id="ha"><path fill="#fff" d="M0 0h16v16H0z"/></clipPath></defs></svg><svg fill="none" viewBox="0 0 8 8" id="closeSmall" xmlns="http://www.w3.org/2000/svg"><g opacity=".23" fill="#000"><path d="M0 .667.667 0 8 7.332 7.333 8z"/><path d="M0 7.333 7.333.001 8 .668.667 8z"/></g></svg><svg fill="none" viewBox="0 0 14 14" id="edit" xmlns="http://www.w3.org/2000/svg"><path opacity=".5" d="M9.667 1 13 4.333 4.333 13H1V9.667L9.667 1Z" stroke="#000" stroke-linecap="round" stroke-linejoin="round"/></svg><svg fill="none" viewBox="0 0 16 12" id="eye" xmlns="http://www.w3.org/2000/svg"><g opacity=".5" clip-rule="evenodd" stroke="#000" stroke-linecap="round" stroke-linejoin="round"><path d="M1 6s2.545-5 7-5c4.454 0 7 5 7 5s-2.546 5-7 5c-4.455 0-7-5-7-5Z"/><path fill-rule="evenodd" d="M8 8a2 2 0 1 0 0-4 2 2 0 0 0 0 4Z" fill="#000"/></g></svg><svg fill="none" viewBox="0 0 16 14" id="eyeClose" xmlns="http://www.w3.org/2000/svg"><g opacity=".5"><path d="M12.083 11.179a.5.5 0 0 0-.606-.796l.606.796ZM8 12.092v.5h.008l-.008-.5ZM1 7l-.44-.236a.5.5 0 0 0-.007.46L1 7Zm3.524-3.382a.5.5 0 0 0-.607-.795l.607.795ZM6.55 1.576a.5.5 0 0 0 .228.974l-.228-.974ZM8 1.91 8 2.41H8v-.5ZM15 7l.441.237a.5.5 0 0 0 .006-.46L15 7.001ZM13.243 8.71a.5.5 0 0 0 .765.644l-.765-.644Zm-3.528-.02a.5.5 0 0 0-.732-.681l.732.682ZM6.992 6.017a.5.5 0 1 0-.682-.731l.682.731Zm4.485 4.367a5.908 5.908 0 0 1-3.485 1.209l.016 1a6.908 6.908 0 0 0 4.075-1.413l-.606-.796ZM8 11.592c-2.027 0-3.654-1.16-4.805-2.388a12.021 12.021 0 0 1-1.64-2.23 6.698 6.698 0 0 1-.102-.187l-.005-.008v-.002L1 7.001l-.447.224.001.002.002.004a2.757 2.757 0 0 0 .032.061c.022.04.053.1.095.173a13.02 13.02 0 0 0 1.782 2.423C3.7 11.206 5.573 12.592 8 12.592v-1ZM1.441 7.237A11.24 11.24 0 0 1 4.524 3.62l-.607-.795A12.24 12.24 0 0 0 .56 6.764l.881.473ZM6.778 2.55c.4-.094.81-.14 1.221-.14l.002-1a6.304 6.304 0 0 0-1.451.166l.228.974ZM8 2.41c2.028 0 3.655 1.16 4.806 2.387a12.018 12.018 0 0 1 1.64 2.23 6.391 6.391 0 0 1 .102.188l.004.008v.002h.001L15 7l.447-.224v-.002l-.003-.004-.007-.013a4.089 4.089 0 0 0-.12-.221 13.022 13.022 0 0 0-1.782-2.423C12.3 2.796 10.427 1.41 8 1.41v1Zm6.559 4.355c-.37.692-.81 1.344-1.316 1.944l.765.644c.55-.654 1.03-1.363 1.433-2.116l-.882-.472ZM8.983 8.008c-.351.377-.88.532-1.38.404l-.247.97a2.409 2.409 0 0 0 2.359-.692l-.732-.682Zm-1.38.404c-.499-.127-.888-.517-1.016-1.016l-.969.247c.218.854.885 1.52 1.738 1.738l.248-.969ZM6.588 7.396c-.127-.5.028-1.028.405-1.38l-.682-.731c-.645.6-.91 1.505-.692 2.358l.97-.247Z" fill="#000"/><path d="m2 1 12 12" stroke="#000" stroke-linecap="round" stroke-linejoin="round"/></g></svg><svg fill="none" viewBox="0 0 8 16" id="facebook" xmlns="http://www.w3.org/2000/svg"><path d="M5 5.5v-2a1 1 0 0 1 1-1h1V0H5a3 3 0 0 0-3 3v2.5H0V8h2v8h3V8h2l1-2.5H5Z" fill="#4267B2"/></svg><svg fill="none" viewBox="0 0 14 14" id="google" xmlns="http://www.w3.org/2000/svg"><path fill-rule="evenodd" clip-rule="evenodd" d="M9.675 3.82A3.502 3.502 0 0 0 7.13 2.771c-1.73 0-3.199 1.232-3.723 2.89v.001a4.413 4.413 0 0 0 0 2.68h.003c.526 1.656 1.993 2.888 3.722 2.888.894 0 1.66-.241 2.254-.667v-.002a3.257 3.257 0 0 0 1.326-2.127H7.13V5.74h6.254c.078.468.115.947.115 1.422 0 2.13-.721 3.93-1.975 5.148l.001.001C10.427 13.38 8.92 14 7.131 14c-2.507 0-4.8-1.492-5.925-3.855a7.354 7.354 0 0 1 0-6.286C2.332 1.493 4.624.001 7.13.001c1.647-.02 3.238.633 4.437 1.821L9.675 3.82Z" fill="#EA4335"/></svg><svg fill="none" viewBox="0 0 16 16" id="instagram" xmlns="http://www.w3.org/2000/svg"><g clip-path="url(#oa)" fill="#fff"><path d="M15.985 4.704c-.038-.85-.175-1.435-.372-1.941a3.904 3.904 0 0 0-.926-1.419 3.938 3.938 0 0 0-1.415-.922C12.761.225 12.18.088 11.33.05 10.474.01 10.202 0 8.03 0S5.586.01 4.732.047c-.85.037-1.434.175-1.94.372a3.904 3.904 0 0 0-1.42.925A3.94 3.94 0 0 0 .45 2.76C.253 3.27.116 3.85.078 4.7c-.04.857-.05 1.13-.05 3.302s.01 2.444.047 3.297c.038.85.175 1.435.372 1.941.203.538.519 1.019.925 1.42.4.405.885.721 1.416.921.51.197 1.091.335 1.941.372.853.038 1.126.047 3.298.047s2.444-.01 3.297-.047c.85-.037 1.435-.175 1.941-.372a4.093 4.093 0 0 0 2.341-2.34c.197-.51.335-1.092.372-1.942.038-.853.047-1.125.047-3.297 0-2.173-.003-2.445-.04-3.298Zm-1.441 6.533c-.035.781-.166 1.203-.275 1.484a2.653 2.653 0 0 1-1.52 1.52c-.28.109-.706.24-1.484.274-.844.038-1.097.047-3.232.047-2.135 0-2.391-.01-3.232-.047-.781-.034-1.203-.165-1.485-.275a2.462 2.462 0 0 1-.918-.597 2.488 2.488 0 0 1-.597-.919c-.11-.28-.241-.706-.275-1.484-.038-.844-.047-1.097-.047-3.232 0-2.135.009-2.391.047-3.232.034-.781.165-1.203.275-1.485.128-.347.33-.662.6-.919.26-.265.572-.469.919-.597.28-.109.706-.24 1.484-.275.844-.037 1.097-.047 3.232-.047 2.138 0 2.391.01 3.232.047.781.035 1.203.166 1.485.275.347.128.662.332.919.597.265.26.468.572.597.92.109.28.24.706.275 1.484.037.844.047 1.097.047 3.232 0 2.135-.01 2.385-.047 3.229Z"/><path d="M8.03 3.891a4.111 4.111 0 0 0 0 8.22 4.111 4.111 0 0 0 0-8.22Zm0 6.777a2.667 2.667 0 1 1 0-5.334 2.667 2.667 0 0 1 0 5.334ZM13.262 3.73a.96.96 0 1 1-1.92 0 .96.96 0 0 1 1.92 0Z"/></g><defs><clipPath id="oa"><path fill="#fff" d="M0 0h16v16H0z"/></clipPath></defs></svg><svg fill="none" viewBox="0 0 14 14" id="krestik" xmlns="http://www.w3.org/2000/svg"><path d="m1 1 12 12m0-12L1 13" stroke="url(#pa)" stroke-width="1.5" stroke-linecap="round" stroke-linejoin="round"/><defs><linearGradient id="pa" x1="3.17" y1="1" x2="13" y2="13" gradientUnits="userSpaceOnUse"><stop stop-color="#09090B"/><stop offset="1" stop-color="#09090B" stop-opacity=".4"/></linearGradient></defs></svg><svg fill="none" viewBox="0 0 16 16" id="link" xmlns="http://www.w3.org/2000/svg"><path d="m5.303 10.607 5.304-5.304" stroke="#FD6F1F" stroke-linecap="round"/><path d="m5.303 10.607 5.304-5.304" stroke="url(#qa)" stroke-opacity=".7" stroke-linecap="round"/><path d="M3.977 6.63 2.652 7.954a3.75 3.75 0 0 0 5.303 5.303l1.326-1.326" stroke="#FD6F1F"/><path d="M3.977 6.63 2.652 7.954a3.75 3.75 0 0 0 5.303 5.303l1.326-1.326" stroke="url(#qb)" stroke-opacity=".7"/><path d="m6.629 3.977 1.326-1.325a3.75 3.75 0 1 1 5.303 5.303l-1.326 1.326" stroke="#FD6F1F"/><path d="m6.629 3.977 1.326-1.325a3.75 3.75 0 1 1 5.303 5.303l-1.326 1.326" stroke="url(#qc)" stroke-opacity=".7"/><defs><linearGradient id="qa" x1="6.01" y1="11.314" x2="4.833" y2="6.813" gradientUnits="userSpaceOnUse"><stop stop-color="#E27357"/><stop offset="1" stop-color="#F79B5E"/></linearGradient><linearGradient id="qb" x1="5.303" y1="15.91" x2="9.238" y2="10.354" gradientUnits="userSpaceOnUse"><stop stop-color="#E27357"/><stop offset="1" stop-color="#F79B5E"/></linearGradient><linearGradient id="qc" x1="15.91" y1="5.303" x2="10.354" y2="9.238" gradientUnits="userSpaceOnUse"><stop stop-color="#E27357"/><stop offset="1" stop-color="#F79B5E"/></linearGradient></defs></svg><svg fill="none" viewBox="0 0 13 14" id="login" xmlns="http://www.w3.org/2000/svg"><g opacity=".5" stroke="#000" stroke-linecap="round" stroke-linejoin="round"><path d="M7.723 13h3.055c.675 0 1.223-.537 1.223-1.2V2.2c0-.663-.548-1.2-1.223-1.2H7.723"/><path d="M5.89 9.4 8.334 7 5.89 4.6M8.333 7H1"/></g></svg><svg fill="none" viewBox="0 0 12 14" id="mapPin" xmlns="http://www.w3.org/2000/svg"><path fill-rule="evenodd" clip-rule="evenodd" d="M11.5 5.728C11.5 10.182 6 14 6 14S.5 10.182.5 5.728C.5 2.564 2.962 0 6 0s5.5 2.564 5.5 5.728ZM6 7.635c1.012 0 1.833-.855 1.833-1.909S7.013 3.816 6 3.816s-1.833.856-1.833 1.91c0 1.054.82 1.91 1.833 1.91Z" fill="#FD6F1F"/><path fill-rule="evenodd" clip-rule="evenodd" d="M11.5 5.728C11.5 10.182 6 14 6 14S.5 10.182.5 5.728C.5 2.564 2.962 0 6 0s5.5 2.564 5.5 5.728ZM6 7.635c1.012 0 1.833-.855 1.833-1.909S7.013 3.816 6 3.816s-1.833.856-1.833 1.91c0 1.054.82 1.91 1.833 1.91Z" fill="url(#sa)" fill-opacity=".7"/><defs><linearGradient id="sa" x1=".5" y1="14.001" x2="13.586" y2="11.659" gradientUnits="userSpaceOnUse"><stop stop-color="#E27357"/><stop offset="1" stop-color="#F79B5E"/></linearGradient></defs></svg><svg fill="none" viewBox="0 0 14 14" id="message" xmlns="http://www.w3.org/2000/svg"><path clip-rule="evenodd" d="M13 9c0 .736-.597 1.333-1.333 1.333h-8L1 13V2.333C1 1.597 1.597 1 2.333 1h9.334C12.403 1 13 1.597 13 2.333V9Z" stroke="#100F0F" stroke-linecap="round" stroke-linejoin="round" opacity=".5"/></svg><svg fill="none" viewBox="0 0 18 18" id="search" xmlns="http://www.w3.org/2000/svg"><path clip-rule="evenodd" d="M7.667 14.333A6.667 6.667 0 1 0 7.667 1a6.667 6.667 0 0 0 0 13.333Z" stroke="#fff" stroke-linecap="round" stroke-linejoin="round"/><path d="m17 17-4.622-4.622" stroke="#fff" stroke-linecap="round" stroke-linejoin="round"/></svg><svg fill="none" viewBox="0 0 13 14" id="trash" xmlns="http://www.w3.org/2000/svg"><g opacity=".5"><path d="M1 3.4h11" stroke="#100F0F" stroke-linecap="round" stroke-linejoin="round"/><path d="M11.277 3.4a.5.5 0 0 0-1 0h1Zm-8.556 0a.5.5 0 1 0-1 0h1Zm.834 0a.5.5 0 1 0 1 0h-1Zm4.889 0a.5.5 0 1 0 1 0h-1Zm1.833 0v8.4h1V3.4h-1Zm0 8.4c0 .378-.315.7-.722.7v1c.942 0 1.722-.752 1.722-1.7h-1Zm-.722.7H3.444v1h6.11v-1Zm-6.111 0a.711.711 0 0 1-.723-.7h-1c0 .948.78 1.7 1.723 1.7v-1Zm-.723-.7V3.4h-1v8.4h1Zm1.834-8.4V2.2h-1v1.2h1Zm0-1.2c0-.378.315-.7.722-.7v-1c-.942 0-1.722.753-1.722 1.7h1Zm.722-.7h2.445v-1H5.277v1Zm2.445 0c.407 0 .722.322.722.7h1c0-.947-.78-1.7-1.722-1.7v1Zm.722.7v1.2h1V2.2h-1Z" fill="#100F0F"/></g></svg><svg fill="none" viewBox="0 0 14 14" id="unlock" xmlns="http://www.w3.org/2000/svg"><g opacity=".5" stroke="#000" stroke-linecap="round" stroke-linejoin="round"><path d="M1 6.402h12V13H1zM3.666 6.402v-2.4C3.664 2.462 5.296 1.155 7 1c2 0 3.5 1.5 3.5 3.002V6"/></g></svg><svg fill="none" viewBox="0 0 75 75" id="Ñoncierge" xmlns="http://www.w3.org/2000/svg"><path d="M58.538 65.6h-39.57a.428.428 0 0 1-.424-.374L16.017 45.17a2.135 2.135 0 0 1 1.8-2.378l9.4-1.42a2.135 2.135 0 0 1 2.306 1.33l5.672 14.397c.143.363.658.36.796-.005l5.444-14.373a2.136 2.136 0 0 1 2.304-1.357l9.875 1.436a2.136 2.136 0 0 1 1.81 2.394l-1.784 13.45M43.075 53.157h5.155M35.505 36.279c7.256 0 13.139-5.883 13.139-13.14C48.644 15.883 42.76 10 35.504 10c-7.256 0-13.139 5.883-13.139 13.14 0 7.256 5.883 13.139 13.14 13.139Z" stroke="#000" stroke-miterlimit="10" stroke-linecap="round" stroke-linejoin="round"/></svg></svg>