<svg width="16" height="12" viewBox="0 0 16 12" fill="none" xmlns="http://www.w3.org/2000/svg">
<g opacity="0.5">
<path d="M2.12109 9.31071H7.56484V10.1179H1H0.975V10.1429V11V11.025H1H15H15.025V11V10.1429V10.1179H15H8.43516V9.31071H13.8789H13.9039V9.28571V8.85714C13.9039 7.21003 13.29 5.66119 12.1751 4.4962C11.1633 3.43902 9.84858 2.81287 8.43516 2.70597V1.88214H9.23047H9.25547V1.85714V1V0.975H9.23047H6.76953H6.74453V1V1.85714V1.88214H6.76953H7.56484V2.70597C6.15142 2.81284 4.8367 3.43899 3.82492 4.4962C2.70999 5.66119 2.09609 7.21003 2.09609 8.85714V9.28571V9.31071H2.12109ZM13.0151 8.40357H2.98494C3.20578 5.71345 5.37159 3.59643 8 3.59643C10.6284 3.59643 12.7942 5.71345 13.0151 8.40357Z" fill="black" stroke="black" stroke-width="0.05"/>
</g>
</svg>
