<svg width="14" height="14" viewBox="0 0 14 14" fill="none" xmlns="http://www.w3.org/2000/svg">
<path fill-rule="evenodd" clip-rule="evenodd" d="M9.67454 3.82049C8.98994 3.13126 8.07632 2.75579 7.13103 2.77122C5.40125 2.77122 3.93215 4.00308 3.40835 5.66186L3.40774 5.66136V5.66217C3.13001 6.53138 3.13 7.47258 3.4077 8.3418H3.41078C3.93703 9.998 5.40369 11.2299 7.13347 11.2299C8.0265 11.2299 8.79315 10.9887 9.3873 10.5628V10.5613C10.0865 10.0726 10.564 9.3037 10.7127 8.43445H7.13128V5.73926H13.3853C13.4632 6.20732 13.4998 6.68566 13.4998 7.16143C13.4998 9.29025 12.779 11.0901 11.525 12.3091L11.5261 12.31C10.4274 13.3798 8.91928 13.9996 7.13103 13.9996C4.62407 13.9996 2.3315 12.508 1.20592 10.1446V10.1442L1.20531 10.1447C0.264896 8.16705 0.264896 5.83705 1.20531 3.85938H1.2063L1.20592 3.85907C2.3315 1.49306 4.62407 0.00144822 7.13103 0.00144822C8.77798 -0.0191257 10.3689 0.634098 11.5676 1.82224L9.67454 3.82049Z" fill="#EA4335"/>
</svg>
