<svg width="75" height="75" viewBox="0 0 75 75" fill="none" xmlns="http://www.w3.org/2000/svg">
<path d="M58.5379 65.6004H18.9686C18.753 65.6004 18.5717 65.4402 18.5444 65.2264L16.017 45.1693C15.8718 44.0192 16.6709 42.9641 17.8166 42.7907L27.2177 41.3713C28.2024 41.2225 29.1581 41.7734 29.5233 42.7001L35.1949 57.0978C35.3384 57.4612 35.8532 57.4577 35.9913 57.0925L41.435 42.7203C41.7897 41.784 42.748 41.219 43.7389 41.3633L53.6143 42.7986C54.7715 42.9667 55.5776 44.0341 55.4244 45.1931L53.6398 58.6422" stroke="black" stroke-miterlimit="10" stroke-linecap="round" stroke-linejoin="round"/>
<path d="M43.0747 53.1571H48.2298" stroke="black" stroke-miterlimit="10" stroke-linecap="round" stroke-linejoin="round"/>
<path d="M35.5046 36.2786C42.7612 36.2786 48.6439 30.396 48.6439 23.1393C48.6439 15.8827 42.7612 10 35.5046 10C28.2479 10 22.3652 15.8827 22.3652 23.1393C22.3652 30.396 28.2479 36.2786 35.5046 36.2786Z" stroke="black" stroke-miterlimit="10" stroke-linecap="round" stroke-linejoin="round"/>
</svg>
