<svg width="75" height="75" viewBox="0 0 75 75" fill="none" xmlns="http://www.w3.org/2000/svg">
<path d="M71.7602 52.2704H3.22512C3.10084 52.2704 3 52.1696 3 52.0453V46.255C3 45.0693 3.96118 44.108 5.14697 44.108H70.062C71.1242 44.108 71.9853 44.9691 71.9853 46.0313V52.0453C71.9853 52.1696 71.8846 52.2704 71.7602 52.2704Z" stroke="#F37021" stroke-miterlimit="10" stroke-linecap="round"/>
<path d="M13.8604 32.8563V20.9218C13.8604 19.8605 14.7208 19 15.7822 19H59.0474C59.9853 19 60.7456 19.7603 60.7456 20.6982V32.8563" stroke="#F37021" stroke-miterlimit="10" stroke-linecap="round"/>
<path d="M19.1138 32.6105C18.9895 32.6105 18.8887 32.5097 18.8887 32.3854V29.1277C18.8887 27.942 19.8499 26.9807 21.0356 26.9807H30.0348C31.097 26.9807 31.9581 27.8418 31.9581 28.904V32.3854C31.9581 32.5097 31.8573 32.6105 31.733 32.6105" stroke="#F37021" stroke-miterlimit="10" stroke-linecap="round"/>
<path d="M42.8701 32.6105C42.7459 32.6105 42.645 32.5097 42.645 32.3854V29.1277C42.645 27.942 43.6062 26.9807 44.792 26.9807H53.7911C54.8533 26.9807 55.7144 27.8418 55.7144 28.904V32.3854C55.7144 32.5097 55.6136 32.6105 55.4893 32.6105" stroke="#F37021" stroke-miterlimit="10" stroke-linecap="round"/>
<path d="M6.78616 43.9765C6.66188 43.9765 6.56104 43.8757 6.56104 43.7514V40.5974C6.56104 36.2481 10.0869 32.7222 14.4363 32.7222H59.5224C64.2285 32.7222 68.0435 36.5372 68.0435 41.2433V43.7514C68.0435 43.8757 67.9427 43.9765 67.8184 43.9765" stroke="#F37021" stroke-miterlimit="10" stroke-linecap="round"/>
<path d="M3 51.0155V57.9675" stroke="#F37021" stroke-miterlimit="10" stroke-linecap="round"/>
<path d="M71.9854 51.1304V57.9602" stroke="#F37021" stroke-miterlimit="10" stroke-linecap="round"/>
</svg>
