<svg width="20" height="20" viewBox="0 0 20 20" xmlns="http://www.w3.org/2000/svg">
<path fill-rule="evenodd" clip-rule="evenodd" d="M0.25 10C0.25 4.61522 4.61522 0.25 10 0.25C15.3848 0.25 19.75 4.61522 19.75 10C19.75 15.3848 15.3848 19.75 10 19.75C4.61522 19.75 0.25 15.3848 0.25 10ZM7 6.25C6.58579 6.25 6.25 6.58579 6.25 7C6.25 7.41421 6.58579 7.75 7 7.75H7.00898C7.4232 7.75 7.75898 7.41421 7.75898 7C7.75898 6.58579 7.4232 6.25 7.00898 6.25H7ZM13 6.25C12.5858 6.25 12.25 6.58579 12.25 7C12.25 7.41421 12.5858 7.75 13 7.75H13.009C13.4232 7.75 13.759 7.41421 13.759 7C13.759 6.58579 13.4232 6.25 13.009 6.25H13ZM5.75 10C5.75 9.58579 5.41421 9.25 5 9.25C4.58579 9.25 4.25 9.58579 4.25 10C4.25 10.9678 4.79199 12.3781 5.71435 13.531C6.65572 14.7077 8.10148 15.75 10 15.75C11.8566 15.75 13.3045 14.8733 14.2715 13.7357C15.2235 12.6157 15.75 11.1973 15.75 10C15.75 9.58579 15.4142 9.25 15 9.25C14.5858 9.25 14.25 9.58579 14.25 10C14.25 10.8027 13.8765 11.8843 13.1285 12.7643C12.3955 13.6267 11.3434 14.25 10 14.25C8.69852 14.25 7.64428 13.5423 6.88565 12.594C6.10801 11.6219 5.75 10.5322 5.75 10Z" />
<defs>
<linearGradient id="paint0_linear_1681_922" x1="3.77703" y1="0.25" x2="19.75" y2="19.75" gradientUnits="userSpaceOnUse">
<stop stop-color="#E94C1F"/>
<stop offset="1" stop-color="#E94C1F" stop-opacity="0.4"/>
</linearGradient>
</defs>
</svg>
