<svg width="16" height="14" viewBox="0 0 16 14" fill="none" xmlns="http://www.w3.org/2000/svg">
<g opacity="0.5">
<path d="M12.0833 11.1786C12.3029 11.0112 12.3452 10.6974 12.1778 10.4778C12.0104 10.2582 11.6967 10.2159 11.4771 10.3833L12.0833 11.1786ZM8.00028 12.0918V12.5919L8.00845 12.5917L8.00028 12.0918ZM1.00049 7.00105L0.55991 6.76464C0.483094 6.90779 0.480619 7.07935 0.553275 7.22466L1.00049 7.00105ZM4.52384 3.61856C4.74331 3.45096 4.78537 3.13719 4.61778 2.91772C4.45019 2.69824 4.13641 2.65619 3.91694 2.82378L4.52384 3.61856ZM6.54993 1.57597C6.28106 1.63891 6.11411 1.90789 6.17705 2.17677C6.23999 2.44564 6.50897 2.61259 6.77785 2.54965L6.54993 1.57597ZM8.00021 1.91009L7.99904 2.41009H8.00021V1.91009ZM15 7.00084L15.441 7.23655C15.5174 7.09352 15.5197 6.9223 15.4472 6.77724L15 7.00084ZM13.2429 8.70886C13.0651 8.92015 13.0923 9.23557 13.3036 9.41336C13.5149 9.59115 13.8303 9.564 14.0081 9.35271L13.2429 8.70886ZM9.71477 8.68955C9.90302 8.48752 9.89185 8.17113 9.68982 7.98288C9.48779 7.79463 9.17141 7.8058 8.98316 8.00782L9.71477 8.68955ZM6.99172 6.01639C7.19375 5.82814 7.20492 5.51175 7.01667 5.30972C6.82841 5.1077 6.51203 5.09653 6.31 5.28478L6.99172 6.01639ZM11.4771 10.3833C10.4742 11.1478 9.25297 11.5713 7.9921 11.5919L8.00845 12.5917C9.48273 12.5676 10.9106 12.0724 12.0833 11.1786L11.4771 10.3833ZM8.00028 11.5918C5.97283 11.5918 4.34588 10.4323 3.19475 9.20446C2.62374 8.59538 2.18438 7.9844 1.88782 7.52522C1.73986 7.29611 1.62826 7.10607 1.55435 6.97466C1.51741 6.909 1.48994 6.85808 1.4721 6.82436C1.46318 6.80751 1.45668 6.79497 1.4526 6.78704C1.45056 6.78308 1.44914 6.78027 1.44832 6.77866C1.44791 6.77785 1.44765 6.77735 1.44755 6.77714C1.4475 6.77704 1.44749 6.77701 1.44751 6.77706C1.44752 6.77709 1.44757 6.77719 1.44758 6.7772C1.44763 6.77731 1.4477 6.77745 1.00049 7.00105C0.553275 7.22466 0.553361 7.22483 0.553457 7.22502C0.553502 7.22511 0.553608 7.22532 0.553698 7.2255C0.553879 7.22586 0.554099 7.2263 0.554358 7.22682C0.554876 7.22785 0.555551 7.22918 0.556382 7.23082C0.558046 7.2341 0.560336 7.2386 0.563251 7.24427C0.569081 7.25561 0.577411 7.27165 0.588223 7.29208C0.609844 7.33294 0.64141 7.39139 0.682772 7.46493C0.765459 7.61193 0.88752 7.8196 1.04778 8.06775C1.36769 8.56308 1.84307 9.22479 2.46521 9.8884C3.70036 11.2059 5.57332 12.5918 8.00028 12.5918V11.5918ZM1.44107 7.23747C2.1989 5.82517 3.24999 4.59128 4.52384 3.61856L3.91694 2.82378C2.52977 3.88304 1.38516 5.22671 0.55991 6.76464L1.44107 7.23747ZM6.77785 2.54965C7.17813 2.45596 7.58794 2.40912 7.99904 2.41009L8.00139 1.41009C7.51278 1.40894 7.02569 1.46461 6.54993 1.57597L6.77785 2.54965ZM8.00021 2.41009C10.0277 2.41009 11.6546 3.56956 12.8057 4.79744C13.3768 5.40651 13.8161 6.0175 14.1127 6.47668C14.2606 6.70579 14.3722 6.89583 14.4461 7.02723C14.4831 7.0929 14.5106 7.14382 14.5284 7.17753C14.5373 7.19439 14.5438 7.20693 14.5479 7.21485C14.5499 7.21882 14.5514 7.22162 14.5522 7.22324C14.5526 7.22404 14.5528 7.22455 14.5529 7.22475C14.553 7.22486 14.553 7.22488 14.553 7.22483C14.553 7.22481 14.5529 7.22471 14.5529 7.2247C14.5529 7.22458 14.5528 7.22445 15 7.00084C15.4472 6.77724 15.4471 6.77707 15.447 6.77687C15.447 6.77678 15.4469 6.77657 15.4468 6.77639C15.4466 6.77603 15.4464 6.77559 15.4461 6.77508C15.4456 6.77405 15.4449 6.77271 15.4441 6.77107C15.4424 6.76779 15.4402 6.7633 15.4372 6.75763C15.4314 6.74629 15.4231 6.73025 15.4123 6.70981C15.3906 6.66896 15.3591 6.6105 15.3177 6.53697C15.235 6.38997 15.113 6.1823 14.9527 5.93415C14.6328 5.43881 14.1574 4.77711 13.5353 4.1135C12.3001 2.796 10.4272 1.41009 8.00021 1.41009V2.41009ZM14.559 6.76514C14.1892 7.45708 13.7481 8.10852 13.2429 8.70886L14.0081 9.35271C14.558 8.69911 15.0383 7.98988 15.441 7.23655L14.559 6.76514ZM8.98316 8.00782C8.63189 8.38479 8.10288 8.53997 7.60364 8.41247L7.3562 9.38137C8.20975 9.59936 9.11421 9.33405 9.71477 8.68955L8.98316 8.00782ZM7.60364 8.41247C7.1044 8.28498 6.71457 7.89514 6.58707 7.39591L5.61817 7.64335C5.83615 8.4969 6.50265 9.16339 7.3562 9.38137L7.60364 8.41247ZM6.58707 7.39591C6.45958 6.89667 6.61475 6.36765 6.99172 6.01639L6.31 5.28478C5.66549 5.88534 5.40019 6.7898 5.61817 7.64335L6.58707 7.39591Z" fill="black"/>
<path d="M2 1L14 13" stroke="black" stroke-linecap="round" stroke-linejoin="round"/>
</g>
</svg>
