<svg width="12" height="14" viewBox="0 0 12 14" fill="none" xmlns="http://www.w3.org/2000/svg">
<path fill-rule="evenodd" clip-rule="evenodd" d="M11.5 5.72752C11.5 10.1823 6 14.0006 6 14.0006C6 14.0006 0.5 10.1823 0.5 5.72752C0.5 2.5643 2.96243 0 6 0C9.03757 0 11.5 2.5643 11.5 5.72752ZM5.99984 7.63524C7.01236 7.63524 7.83317 6.78048 7.83317 5.72607C7.83317 4.67166 7.01236 3.81689 5.99984 3.81689C4.98731 3.81689 4.1665 4.67166 4.1665 5.72607C4.1665 6.78048 4.98731 7.63524 5.99984 7.63524Z" fill="#FD6F1F"/>
<path fill-rule="evenodd" clip-rule="evenodd" d="M11.5 5.72752C11.5 10.1823 6 14.0006 6 14.0006C6 14.0006 0.5 10.1823 0.5 5.72752C0.5 2.5643 2.96243 0 6 0C9.03757 0 11.5 2.5643 11.5 5.72752ZM5.99984 7.63524C7.01236 7.63524 7.83317 6.78048 7.83317 5.72607C7.83317 4.67166 7.01236 3.81689 5.99984 3.81689C4.98731 3.81689 4.1665 4.67166 4.1665 5.72607C4.1665 6.78048 4.98731 7.63524 5.99984 7.63524Z" fill="url(#paint0_linear_699_2589)" fill-opacity="0.7"/>
<defs>
<linearGradient id="paint0_linear_699_2589" x1="0.5" y1="14.0006" x2="13.5865" y2="11.6585" gradientUnits="userSpaceOnUse">
<stop stop-color="#E27357"/>
<stop offset="1" stop-color="#F79B5E"/>
</linearGradient>
</defs>
</svg>
