<svg width="13" height="14" viewBox="0 0 13 14" fill="none" xmlns="http://www.w3.org/2000/svg">
<g opacity="0.5">
<path d="M1 3.40039H2.22222H12" stroke="#100F0F" stroke-linecap="round" stroke-linejoin="round"/>
<path d="M11.277 3.40022C11.277 3.12407 11.0531 2.90022 10.777 2.90022C10.5009 2.90022 10.277 3.12407 10.277 3.40022H11.277ZM2.72144 3.40022C2.72144 3.12407 2.49758 2.90022 2.22144 2.90022C1.9453 2.90022 1.72144 3.12407 1.72144 3.40022H2.72144ZM3.55514 3.4C3.55514 3.67614 3.77899 3.9 4.05514 3.9C4.33128 3.9 4.55514 3.67614 4.55514 3.4H3.55514ZM8.44403 3.4C8.44403 3.67614 8.66788 3.9 8.94403 3.9C9.22017 3.9 9.44403 3.67614 9.44403 3.4H8.44403ZM10.277 3.40022V11.8002H11.277V3.40022H10.277ZM10.277 11.8002C10.277 12.1782 9.96234 12.5002 9.55478 12.5002V13.5002C10.4972 13.5002 11.277 12.7477 11.277 11.8002H10.277ZM9.55478 12.5002H3.44366V13.5002H9.55478V12.5002ZM3.44366 12.5002C3.0361 12.5002 2.72144 12.1782 2.72144 11.8002H1.72144C1.72144 12.7477 2.5012 13.5002 3.44366 13.5002V12.5002ZM2.72144 11.8002V3.40022H1.72144V11.8002H2.72144ZM4.55514 3.4V2.2H3.55514V3.4H4.55514ZM4.55514 2.2C4.55514 1.82201 4.8698 1.5 5.27736 1.5V0.5C4.33489 0.5 3.55514 1.25251 3.55514 2.2H4.55514ZM5.27736 1.5H7.7218V0.5H5.27736V1.5ZM7.7218 1.5C8.12937 1.5 8.44403 1.82201 8.44403 2.2H9.44403C9.44403 1.25251 8.66427 0.5 7.7218 0.5V1.5ZM8.44403 2.2V3.4H9.44403V2.2H8.44403Z" fill="#100F0F"/>
</g>
</svg>
