<svg width="89" height="37" viewBox="0 0 89 37" fill="none"
    xmlns="http://www.w3.org/2000/svg">

    <path d="M1.36468 14.1287C1.36468 13.0954 1.34949 11.9709 1.3191 10.7553C1.3191 9.5397 1.3039 8.33928 1.27351 7.15406C1.24312 5.96883 1.19754 4.84439 1.13676 3.78072C1.10637 2.68667 1.06078 1.75976 1 1C1.85093 1.15195 2.53472 1.22793 3.05135 1.22793C3.56799 1.22793 4.25177 1.15195 5.1027 1C5.04192 1.75976 4.98114 2.68667 4.92036 3.78072C4.88997 4.84439 4.85958 5.96883 4.82919 7.15406C4.7988 8.33928 4.76841 9.5397 4.73802 10.7553C4.73802 11.9709 4.73802 13.0954 4.73802 14.1287V22.3796C4.73802 23.4129 4.73802 24.5374 4.73802 25.753C4.76841 26.9686 4.7988 28.169 4.82919 29.3542C4.85958 30.5395 4.88997 31.6639 4.92036 32.7276C4.98114 33.7912 5.04192 34.6726 5.1027 35.3715C4.40372 35.3108 3.71994 35.2804 3.05135 35.2804C2.38276 35.2804 1.69898 35.3108 1 35.3715C1.06078 34.6726 1.10637 33.7912 1.13676 32.7276C1.19754 31.6639 1.24312 30.5395 1.27351 29.3542C1.3039 28.169 1.3191 26.9686 1.3191 25.753C1.34949 24.5374 1.36468 23.4129 1.36468 22.3796V14.1287Z" fill="#FD6F1F"/>
    <path d="M1.36468 14.1287C1.36468 13.0954 1.34949 11.9709 1.3191 10.7553C1.3191 9.5397 1.3039 8.33928 1.27351 7.15406C1.24312 5.96883 1.19754 4.84439 1.13676 3.78072C1.10637 2.68667 1.06078 1.75976 1 1C1.85093 1.15195 2.53472 1.22793 3.05135 1.22793C3.56799 1.22793 4.25177 1.15195 5.1027 1C5.04192 1.75976 4.98114 2.68667 4.92036 3.78072C4.88997 4.84439 4.85958 5.96883 4.82919 7.15406C4.7988 8.33928 4.76841 9.5397 4.73802 10.7553C4.73802 11.9709 4.73802 13.0954 4.73802 14.1287V22.3796C4.73802 23.4129 4.73802 24.5374 4.73802 25.753C4.76841 26.9686 4.7988 28.169 4.82919 29.3542C4.85958 30.5395 4.88997 31.6639 4.92036 32.7276C4.98114 33.7912 5.04192 34.6726 5.1027 35.3715C4.40372 35.3108 3.71994 35.2804 3.05135 35.2804C2.38276 35.2804 1.69898 35.3108 1 35.3715C1.06078 34.6726 1.10637 33.7912 1.13676 32.7276C1.19754 31.6639 1.24312 30.5395 1.27351 29.3542C1.3039 28.169 1.3191 26.9686 1.3191 25.753C1.34949 24.5374 1.36468 23.4129 1.36468 22.3796V14.1287Z" fill="url(#paint0_linear)" fill-opacity="0.7"/>
    <path d="M21.3096 14.7213C20.1852 14.7213 19.2279 14.9796 18.4377 15.4962C17.678 16.0129 17.0398 16.6662 16.5231 17.4564C16.0369 18.2162 15.657 19.0671 15.3835 20.0092C15.1404 20.9209 14.9884 21.787 14.9276 22.6076C15.8697 22.638 16.8422 22.6684 17.8451 22.6987C18.8784 22.7291 19.8813 22.7443 20.8538 22.7443C21.8566 22.7443 22.8747 22.7291 23.908 22.6987C24.9413 22.6684 25.9441 22.638 26.9166 22.6076C26.9166 21.787 26.8407 20.9209 26.6887 20.0092C26.5671 19.0975 26.2936 18.2466 25.8682 17.4564C25.4731 16.6662 24.9109 16.0129 24.1815 15.4962C23.4521 14.9796 22.4948 14.7213 21.3096 14.7213ZM10.7793 25.2515C10.7793 21.5135 11.6607 18.5808 13.4233 16.4535C15.2163 14.3262 17.8147 13.2625 21.2184 13.2625C22.8291 13.2625 24.2119 13.5208 25.3667 14.0375C26.552 14.5237 27.5396 15.1923 28.3298 16.0432C29.1199 16.8638 29.6974 17.8363 30.062 18.9607C30.4571 20.0852 30.6547 21.2856 30.6547 22.562C30.6547 22.8659 30.6395 23.1698 30.6091 23.4737C30.6091 23.7472 30.5939 24.0359 30.5635 24.3398C28.9224 24.3094 27.2965 24.279 25.6858 24.2487C24.0751 24.2183 22.4492 24.2031 20.8082 24.2031C19.8053 24.2031 18.8024 24.2183 17.7995 24.2487C16.827 24.279 15.8393 24.3094 14.8365 24.3398C14.8061 24.4918 14.7909 24.7197 14.7909 25.0236V25.6162C14.7909 26.8014 14.958 27.9107 15.2923 28.944C15.657 29.9772 16.1736 30.8738 16.8422 31.6335C17.5108 32.3629 18.3314 32.9555 19.3038 33.4114C20.2763 33.8368 21.4008 34.0496 22.6772 34.0496C23.285 34.0496 23.908 33.9736 24.5462 33.8216C25.1844 33.6393 25.8074 33.4114 26.4152 33.1378C27.023 32.8339 27.5852 32.4845 28.1019 32.0894C28.6489 31.6943 29.1199 31.2688 29.515 30.813L29.7429 30.9497L29.4694 33.1834C28.5577 33.9128 27.4181 34.5358 26.0505 35.0524C24.7133 35.5691 23.3154 35.8274 21.8566 35.8274C20.2156 35.8274 18.7112 35.5843 17.3437 35.098C16.0065 34.5814 14.8365 33.852 13.8336 32.9099C12.8611 31.9374 12.1013 30.7978 11.5543 29.491C11.0377 28.1842 10.7793 26.7711 10.7793 25.2515Z" fill="#FD6F1F"/>
    <path d="M21.3096 14.7213C20.1852 14.7213 19.2279 14.9796 18.4377 15.4962C17.678 16.0129 17.0398 16.6662 16.5231 17.4564C16.0369 18.2162 15.657 19.0671 15.3835 20.0092C15.1404 20.9209 14.9884 21.787 14.9276 22.6076C15.8697 22.638 16.8422 22.6684 17.8451 22.6987C18.8784 22.7291 19.8813 22.7443 20.8538 22.7443C21.8566 22.7443 22.8747 22.7291 23.908 22.6987C24.9413 22.6684 25.9441 22.638 26.9166 22.6076C26.9166 21.787 26.8407 20.9209 26.6887 20.0092C26.5671 19.0975 26.2936 18.2466 25.8682 17.4564C25.4731 16.6662 24.9109 16.0129 24.1815 15.4962C23.4521 14.9796 22.4948 14.7213 21.3096 14.7213ZM10.7793 25.2515C10.7793 21.5135 11.6607 18.5808 13.4233 16.4535C15.2163 14.3262 17.8147 13.2625 21.2184 13.2625C22.8291 13.2625 24.2119 13.5208 25.3667 14.0375C26.552 14.5237 27.5396 15.1923 28.3298 16.0432C29.1199 16.8638 29.6974 17.8363 30.062 18.9607C30.4571 20.0852 30.6547 21.2856 30.6547 22.562C30.6547 22.8659 30.6395 23.1698 30.6091 23.4737C30.6091 23.7472 30.5939 24.0359 30.5635 24.3398C28.9224 24.3094 27.2965 24.279 25.6858 24.2487C24.0751 24.2183 22.4492 24.2031 20.8082 24.2031C19.8053 24.2031 18.8024 24.2183 17.7995 24.2487C16.827 24.279 15.8393 24.3094 14.8365 24.3398C14.8061 24.4918 14.7909 24.7197 14.7909 25.0236V25.6162C14.7909 26.8014 14.958 27.9107 15.2923 28.944C15.657 29.9772 16.1736 30.8738 16.8422 31.6335C17.5108 32.3629 18.3314 32.9555 19.3038 33.4114C20.2763 33.8368 21.4008 34.0496 22.6772 34.0496C23.285 34.0496 23.908 33.9736 24.5462 33.8216C25.1844 33.6393 25.8074 33.4114 26.4152 33.1378C27.023 32.8339 27.5852 32.4845 28.1019 32.0894C28.6489 31.6943 29.1199 31.2688 29.515 30.813L29.7429 30.9497L29.4694 33.1834C28.5577 33.9128 27.4181 34.5358 26.0505 35.0524C24.7133 35.5691 23.3154 35.8274 21.8566 35.8274C20.2156 35.8274 18.7112 35.5843 17.3437 35.098C16.0065 34.5814 14.8365 33.852 13.8336 32.9099C12.8611 31.9374 12.1013 30.7978 11.5543 29.491C11.0377 28.1842 10.7793 26.7711 10.7793 25.2515Z" fill="url(#paint1_linear)" fill-opacity="0.7"/>
    <path d="M44.8257 14.7213C43.7013 14.7213 42.744 14.9796 41.9539 15.4962C41.1941 16.0129 40.5559 16.6662 40.0393 17.4564C39.553 18.2162 39.1731 19.0671 38.8996 20.0092C38.6565 20.9209 38.5045 21.787 38.4438 22.6076C39.3859 22.638 40.3584 22.6684 41.3612 22.6987C42.3945 22.7291 43.3974 22.7443 44.3699 22.7443C45.3728 22.7443 46.3909 22.7291 47.4241 22.6987C48.4574 22.6684 49.4603 22.638 50.4328 22.6076C50.4328 21.787 50.3568 20.9209 50.2048 20.0092C50.0833 19.0975 49.8098 18.2466 49.3843 17.4564C48.9892 16.6662 48.427 16.0129 47.6976 15.4962C46.9683 14.9796 46.011 14.7213 44.8257 14.7213ZM34.2955 25.2515C34.2955 21.5135 35.1768 18.5808 36.9394 16.4535C38.7325 14.3262 41.3309 13.2625 44.7346 13.2625C46.3453 13.2625 47.728 13.5208 48.8829 14.0375C50.0681 14.5237 51.0558 15.1923 51.8459 16.0432C52.6361 16.8638 53.2135 17.8363 53.5782 18.9607C53.9733 20.0852 54.1708 21.2856 54.1708 22.562C54.1708 22.8659 54.1556 23.1698 54.1252 23.4737C54.1252 23.7472 54.11 24.0359 54.0796 24.3398C52.4385 24.3094 50.8127 24.279 49.202 24.2487C47.5913 24.2183 45.9654 24.2031 44.3243 24.2031C43.3214 24.2031 42.3185 24.2183 41.3157 24.2487C40.3432 24.279 39.3555 24.3094 38.3526 24.3398C38.3222 24.4918 38.307 24.7197 38.307 25.0236V25.6162C38.307 26.8014 38.4742 27.9107 38.8084 28.944C39.1731 29.9772 39.6898 30.8738 40.3584 31.6335C41.0269 32.3629 41.8475 32.9555 42.82 33.4114C43.7925 33.8368 44.9169 34.0496 46.1933 34.0496C46.8011 34.0496 47.4241 33.9736 48.0623 33.8216C48.7005 33.6393 49.3235 33.4114 49.9313 33.1378C50.5391 32.8339 51.1014 32.4845 51.618 32.0894C52.165 31.6943 52.6361 31.2688 53.0312 30.813L53.2591 30.9497L52.9856 33.1834C52.0739 33.9128 50.9342 34.5358 49.5666 35.0524C48.2295 35.5691 46.8315 35.8274 45.3728 35.8274C43.7317 35.8274 42.2274 35.5843 40.8598 35.098C39.5226 34.5814 38.3526 33.852 37.3497 32.9099C36.3772 31.9374 35.6175 30.7978 35.0704 29.491C34.5538 28.1842 34.2955 26.7711 34.2955 25.2515Z" fill="#FD6F1F"/>
    <path d="M44.8257 14.7213C43.7013 14.7213 42.744 14.9796 41.9539 15.4962C41.1941 16.0129 40.5559 16.6662 40.0393 17.4564C39.553 18.2162 39.1731 19.0671 38.8996 20.0092C38.6565 20.9209 38.5045 21.787 38.4438 22.6076C39.3859 22.638 40.3584 22.6684 41.3612 22.6987C42.3945 22.7291 43.3974 22.7443 44.3699 22.7443C45.3728 22.7443 46.3909 22.7291 47.4241 22.6987C48.4574 22.6684 49.4603 22.638 50.4328 22.6076C50.4328 21.787 50.3568 20.9209 50.2048 20.0092C50.0833 19.0975 49.8098 18.2466 49.3843 17.4564C48.9892 16.6662 48.427 16.0129 47.6976 15.4962C46.9683 14.9796 46.011 14.7213 44.8257 14.7213ZM34.2955 25.2515C34.2955 21.5135 35.1768 18.5808 36.9394 16.4535C38.7325 14.3262 41.3309 13.2625 44.7346 13.2625C46.3453 13.2625 47.728 13.5208 48.8829 14.0375C50.0681 14.5237 51.0558 15.1923 51.8459 16.0432C52.6361 16.8638 53.2135 17.8363 53.5782 18.9607C53.9733 20.0852 54.1708 21.2856 54.1708 22.562C54.1708 22.8659 54.1556 23.1698 54.1252 23.4737C54.1252 23.7472 54.11 24.0359 54.0796 24.3398C52.4385 24.3094 50.8127 24.279 49.202 24.2487C47.5913 24.2183 45.9654 24.2031 44.3243 24.2031C43.3214 24.2031 42.3185 24.2183 41.3157 24.2487C40.3432 24.279 39.3555 24.3094 38.3526 24.3398C38.3222 24.4918 38.307 24.7197 38.307 25.0236V25.6162C38.307 26.8014 38.4742 27.9107 38.8084 28.944C39.1731 29.9772 39.6898 30.8738 40.3584 31.6335C41.0269 32.3629 41.8475 32.9555 42.82 33.4114C43.7925 33.8368 44.9169 34.0496 46.1933 34.0496C46.8011 34.0496 47.4241 33.9736 48.0623 33.8216C48.7005 33.6393 49.3235 33.4114 49.9313 33.1378C50.5391 32.8339 51.1014 32.4845 51.618 32.0894C52.165 31.6943 52.6361 31.2688 53.0312 30.813L53.2591 30.9497L52.9856 33.1834C52.0739 33.9128 50.9342 34.5358 49.5666 35.0524C48.2295 35.5691 46.8315 35.8274 45.3728 35.8274C43.7317 35.8274 42.2274 35.5843 40.8598 35.098C39.5226 34.5814 38.3526 33.852 37.3497 32.9099C36.3772 31.9374 35.6175 30.7978 35.0704 29.491C34.5538 28.1842 34.2955 26.7711 34.2955 25.2515Z" fill="url(#paint2_linear)" fill-opacity="0.7"/>
    <path d="M66.3938 35.3715C64.9958 31.7855 63.5827 28.1994 62.1543 24.6133C60.7564 21.0273 59.2216 17.3956 57.5502 13.7184C57.9452 13.7792 58.3251 13.8399 58.6898 13.9007C59.0545 13.9311 59.4344 13.9463 59.8294 13.9463C60.1637 13.9463 60.498 13.9311 60.8323 13.9007C61.1666 13.8399 61.5009 13.7792 61.8352 13.7184C62.7773 16.727 63.7954 19.6901 64.8894 22.6076C66.0139 25.4947 67.2599 28.4577 68.6274 31.4968C69.2353 30.2508 69.8279 28.9136 70.4053 27.4852C71.0131 26.0265 71.6057 24.5222 72.1831 22.9723C72.7909 21.4223 73.3684 19.8724 73.9154 18.3225C74.4928 16.7422 75.055 15.2075 75.6021 13.7184C76.1491 13.8703 76.6201 13.9463 77.0152 13.9463C77.4103 13.9463 77.8813 13.8703 78.4284 13.7184C76.7873 17.3956 75.1766 21.0273 73.5963 24.6133C72.016 28.1994 70.5724 31.7855 69.2656 35.3715C68.8098 35.3108 68.3388 35.2804 67.8525 35.2804C67.3663 35.2804 66.88 35.3108 66.3938 35.3715Z" fill="#FD6F1F"/>
    <path d="M66.3938 35.3715C64.9958 31.7855 63.5827 28.1994 62.1543 24.6133C60.7564 21.0273 59.2216 17.3956 57.5502 13.7184C57.9452 13.7792 58.3251 13.8399 58.6898 13.9007C59.0545 13.9311 59.4344 13.9463 59.8294 13.9463C60.1637 13.9463 60.498 13.9311 60.8323 13.9007C61.1666 13.8399 61.5009 13.7792 61.8352 13.7184C62.7773 16.727 63.7954 19.6901 64.8894 22.6076C66.0139 25.4947 67.2599 28.4577 68.6274 31.4968C69.2353 30.2508 69.8279 28.9136 70.4053 27.4852C71.0131 26.0265 71.6057 24.5222 72.1831 22.9723C72.7909 21.4223 73.3684 19.8724 73.9154 18.3225C74.4928 16.7422 75.055 15.2075 75.6021 13.7184C76.1491 13.8703 76.6201 13.9463 77.0152 13.9463C77.4103 13.9463 77.8813 13.8703 78.4284 13.7184C76.7873 17.3956 75.1766 21.0273 73.5963 24.6133C72.016 28.1994 70.5724 31.7855 69.2656 35.3715C68.8098 35.3108 68.3388 35.2804 67.8525 35.2804C67.3663 35.2804 66.88 35.3108 66.3938 35.3715Z" fill="url(#paint3_linear)" fill-opacity="0.7"/>
    <path d="M1.36468 14.1287C1.36468 13.0954 1.34949 11.9709 1.3191 10.7553C1.3191 9.5397 1.3039 8.33928 1.27351 7.15406C1.24312 5.96883 1.19754 4.84439 1.13676 3.78072C1.10637 2.68667 1.06078 1.75976 1 1C1.85093 1.15195 2.53472 1.22793 3.05135 1.22793C3.56799 1.22793 4.25177 1.15195 5.1027 1C5.04192 1.75976 4.98114 2.68667 4.92036 3.78072C4.88997 4.84439 4.85958 5.96883 4.82919 7.15406C4.7988 8.33928 4.76841 9.5397 4.73802 10.7553C4.73802 11.9709 4.73802 13.0954 4.73802 14.1287V22.3796C4.73802 23.4129 4.73802 24.5374 4.73802 25.753C4.76841 26.9686 4.7988 28.169 4.82919 29.3542C4.85958 30.5395 4.88997 31.6639 4.92036 32.7276C4.98114 33.7912 5.04192 34.6726 5.1027 35.3715C4.40372 35.3108 3.71994 35.2804 3.05135 35.2804C2.38276 35.2804 1.69898 35.3108 1 35.3715C1.06078 34.6726 1.10637 33.7912 1.13676 32.7276C1.19754 31.6639 1.24312 30.5395 1.27351 29.3542C1.3039 28.169 1.3191 26.9686 1.3191 25.753C1.34949 24.5374 1.36468 23.4129 1.36468 22.3796V14.1287Z" stroke="#FD6F1F" stroke-width="0.586667" mask="url(#path-1-outside-1)"/>
    <path d="M1.36468 14.1287C1.36468 13.0954 1.34949 11.9709 1.3191 10.7553C1.3191 9.5397 1.3039 8.33928 1.27351 7.15406C1.24312 5.96883 1.19754 4.84439 1.13676 3.78072C1.10637 2.68667 1.06078 1.75976 1 1C1.85093 1.15195 2.53472 1.22793 3.05135 1.22793C3.56799 1.22793 4.25177 1.15195 5.1027 1C5.04192 1.75976 4.98114 2.68667 4.92036 3.78072C4.88997 4.84439 4.85958 5.96883 4.82919 7.15406C4.7988 8.33928 4.76841 9.5397 4.73802 10.7553C4.73802 11.9709 4.73802 13.0954 4.73802 14.1287V22.3796C4.73802 23.4129 4.73802 24.5374 4.73802 25.753C4.76841 26.9686 4.7988 28.169 4.82919 29.3542C4.85958 30.5395 4.88997 31.6639 4.92036 32.7276C4.98114 33.7912 5.04192 34.6726 5.1027 35.3715C4.40372 35.3108 3.71994 35.2804 3.05135 35.2804C2.38276 35.2804 1.69898 35.3108 1 35.3715C1.06078 34.6726 1.10637 33.7912 1.13676 32.7276C1.19754 31.6639 1.24312 30.5395 1.27351 29.3542C1.3039 28.169 1.3191 26.9686 1.3191 25.753C1.34949 24.5374 1.36468 23.4129 1.36468 22.3796V14.1287Z" stroke="url(#paint4_linear)" stroke-opacity="0.7" stroke-width="0.586667" mask="url(#path-1-outside-1)"/>
    <path d="M21.3096 14.7213C20.1852 14.7213 19.2279 14.9796 18.4377 15.4962C17.678 16.0129 17.0398 16.6662 16.5231 17.4564C16.0369 18.2162 15.657 19.0671 15.3835 20.0092C15.1404 20.9209 14.9884 21.787 14.9276 22.6076C15.8697 22.638 16.8422 22.6684 17.8451 22.6987C18.8784 22.7291 19.8813 22.7443 20.8538 22.7443C21.8566 22.7443 22.8747 22.7291 23.908 22.6987C24.9413 22.6684 25.9441 22.638 26.9166 22.6076C26.9166 21.787 26.8407 20.9209 26.6887 20.0092C26.5671 19.0975 26.2936 18.2466 25.8682 17.4564C25.4731 16.6662 24.9109 16.0129 24.1815 15.4962C23.4521 14.9796 22.4948 14.7213 21.3096 14.7213ZM10.7793 25.2515C10.7793 21.5135 11.6607 18.5808 13.4233 16.4535C15.2163 14.3262 17.8147 13.2625 21.2184 13.2625C22.8291 13.2625 24.2119 13.5208 25.3667 14.0375C26.552 14.5237 27.5396 15.1923 28.3298 16.0432C29.1199 16.8638 29.6974 17.8363 30.062 18.9607C30.4571 20.0852 30.6547 21.2856 30.6547 22.562C30.6547 22.8659 30.6395 23.1698 30.6091 23.4737C30.6091 23.7472 30.5939 24.0359 30.5635 24.3398C28.9224 24.3094 27.2965 24.279 25.6858 24.2487C24.0751 24.2183 22.4492 24.2031 20.8082 24.2031C19.8053 24.2031 18.8024 24.2183 17.7995 24.2487C16.827 24.279 15.8393 24.3094 14.8365 24.3398C14.8061 24.4918 14.7909 24.7197 14.7909 25.0236V25.6162C14.7909 26.8014 14.958 27.9107 15.2923 28.944C15.657 29.9772 16.1736 30.8738 16.8422 31.6335C17.5108 32.3629 18.3314 32.9555 19.3038 33.4114C20.2763 33.8368 21.4008 34.0496 22.6772 34.0496C23.285 34.0496 23.908 33.9736 24.5462 33.8216C25.1844 33.6393 25.8074 33.4114 26.4152 33.1378C27.023 32.8339 27.5852 32.4845 28.1019 32.0894C28.6489 31.6943 29.1199 31.2688 29.515 30.813L29.7429 30.9497L29.4694 33.1834C28.5577 33.9128 27.4181 34.5358 26.0505 35.0524C24.7133 35.5691 23.3154 35.8274 21.8566 35.8274C20.2156 35.8274 18.7112 35.5843 17.3437 35.098C16.0065 34.5814 14.8365 33.852 13.8336 32.9099C12.8611 31.9374 12.1013 30.7978 11.5543 29.491C11.0377 28.1842 10.7793 26.7711 10.7793 25.2515Z" stroke="#FD6F1F" stroke-width="0.586667" mask="url(#path-1-outside-1)"/>
    <path d="M21.3096 14.7213C20.1852 14.7213 19.2279 14.9796 18.4377 15.4962C17.678 16.0129 17.0398 16.6662 16.5231 17.4564C16.0369 18.2162 15.657 19.0671 15.3835 20.0092C15.1404 20.9209 14.9884 21.787 14.9276 22.6076C15.8697 22.638 16.8422 22.6684 17.8451 22.6987C18.8784 22.7291 19.8813 22.7443 20.8538 22.7443C21.8566 22.7443 22.8747 22.7291 23.908 22.6987C24.9413 22.6684 25.9441 22.638 26.9166 22.6076C26.9166 21.787 26.8407 20.9209 26.6887 20.0092C26.5671 19.0975 26.2936 18.2466 25.8682 17.4564C25.4731 16.6662 24.9109 16.0129 24.1815 15.4962C23.4521 14.9796 22.4948 14.7213 21.3096 14.7213ZM10.7793 25.2515C10.7793 21.5135 11.6607 18.5808 13.4233 16.4535C15.2163 14.3262 17.8147 13.2625 21.2184 13.2625C22.8291 13.2625 24.2119 13.5208 25.3667 14.0375C26.552 14.5237 27.5396 15.1923 28.3298 16.0432C29.1199 16.8638 29.6974 17.8363 30.062 18.9607C30.4571 20.0852 30.6547 21.2856 30.6547 22.562C30.6547 22.8659 30.6395 23.1698 30.6091 23.4737C30.6091 23.7472 30.5939 24.0359 30.5635 24.3398C28.9224 24.3094 27.2965 24.279 25.6858 24.2487C24.0751 24.2183 22.4492 24.2031 20.8082 24.2031C19.8053 24.2031 18.8024 24.2183 17.7995 24.2487C16.827 24.279 15.8393 24.3094 14.8365 24.3398C14.8061 24.4918 14.7909 24.7197 14.7909 25.0236V25.6162C14.7909 26.8014 14.958 27.9107 15.2923 28.944C15.657 29.9772 16.1736 30.8738 16.8422 31.6335C17.5108 32.3629 18.3314 32.9555 19.3038 33.4114C20.2763 33.8368 21.4008 34.0496 22.6772 34.0496C23.285 34.0496 23.908 33.9736 24.5462 33.8216C25.1844 33.6393 25.8074 33.4114 26.4152 33.1378C27.023 32.8339 27.5852 32.4845 28.1019 32.0894C28.6489 31.6943 29.1199 31.2688 29.515 30.813L29.7429 30.9497L29.4694 33.1834C28.5577 33.9128 27.4181 34.5358 26.0505 35.0524C24.7133 35.5691 23.3154 35.8274 21.8566 35.8274C20.2156 35.8274 18.7112 35.5843 17.3437 35.098C16.0065 34.5814 14.8365 33.852 13.8336 32.9099C12.8611 31.9374 12.1013 30.7978 11.5543 29.491C11.0377 28.1842 10.7793 26.7711 10.7793 25.2515Z" stroke="url(#paint5_linear)" stroke-opacity="0.7" stroke-width="0.586667" mask="url(#path-1-outside-1)"/>
    <path d="M44.8257 14.7213C43.7013 14.7213 42.744 14.9796 41.9539 15.4962C41.1941 16.0129 40.5559 16.6662 40.0393 17.4564C39.553 18.2162 39.1731 19.0671 38.8996 20.0092C38.6565 20.9209 38.5045 21.787 38.4438 22.6076C39.3859 22.638 40.3584 22.6684 41.3612 22.6987C42.3945 22.7291 43.3974 22.7443 44.3699 22.7443C45.3728 22.7443 46.3909 22.7291 47.4241 22.6987C48.4574 22.6684 49.4603 22.638 50.4328 22.6076C50.4328 21.787 50.3568 20.9209 50.2048 20.0092C50.0833 19.0975 49.8098 18.2466 49.3843 17.4564C48.9892 16.6662 48.427 16.0129 47.6976 15.4962C46.9683 14.9796 46.011 14.7213 44.8257 14.7213ZM34.2955 25.2515C34.2955 21.5135 35.1768 18.5808 36.9394 16.4535C38.7325 14.3262 41.3309 13.2625 44.7346 13.2625C46.3453 13.2625 47.728 13.5208 48.8829 14.0375C50.0681 14.5237 51.0558 15.1923 51.8459 16.0432C52.6361 16.8638 53.2135 17.8363 53.5782 18.9607C53.9733 20.0852 54.1708 21.2856 54.1708 22.562C54.1708 22.8659 54.1556 23.1698 54.1252 23.4737C54.1252 23.7472 54.11 24.0359 54.0796 24.3398C52.4385 24.3094 50.8127 24.279 49.202 24.2487C47.5913 24.2183 45.9654 24.2031 44.3243 24.2031C43.3214 24.2031 42.3185 24.2183 41.3157 24.2487C40.3432 24.279 39.3555 24.3094 38.3526 24.3398C38.3222 24.4918 38.307 24.7197 38.307 25.0236V25.6162C38.307 26.8014 38.4742 27.9107 38.8084 28.944C39.1731 29.9772 39.6898 30.8738 40.3584 31.6335C41.0269 32.3629 41.8475 32.9555 42.82 33.4114C43.7925 33.8368 44.9169 34.0496 46.1933 34.0496C46.8011 34.0496 47.4241 33.9736 48.0623 33.8216C48.7005 33.6393 49.3235 33.4114 49.9313 33.1378C50.5391 32.8339 51.1014 32.4845 51.618 32.0894C52.165 31.6943 52.6361 31.2688 53.0312 30.813L53.2591 30.9497L52.9856 33.1834C52.0739 33.9128 50.9342 34.5358 49.5666 35.0524C48.2295 35.5691 46.8315 35.8274 45.3728 35.8274C43.7317 35.8274 42.2274 35.5843 40.8598 35.098C39.5226 34.5814 38.3526 33.852 37.3497 32.9099C36.3772 31.9374 35.6175 30.7978 35.0704 29.491C34.5538 28.1842 34.2955 26.7711 34.2955 25.2515Z" stroke="#FD6F1F" stroke-width="0.586667" mask="url(#path-1-outside-1)"/>
    <path d="M44.8257 14.7213C43.7013 14.7213 42.744 14.9796 41.9539 15.4962C41.1941 16.0129 40.5559 16.6662 40.0393 17.4564C39.553 18.2162 39.1731 19.0671 38.8996 20.0092C38.6565 20.9209 38.5045 21.787 38.4438 22.6076C39.3859 22.638 40.3584 22.6684 41.3612 22.6987C42.3945 22.7291 43.3974 22.7443 44.3699 22.7443C45.3728 22.7443 46.3909 22.7291 47.4241 22.6987C48.4574 22.6684 49.4603 22.638 50.4328 22.6076C50.4328 21.787 50.3568 20.9209 50.2048 20.0092C50.0833 19.0975 49.8098 18.2466 49.3843 17.4564C48.9892 16.6662 48.427 16.0129 47.6976 15.4962C46.9683 14.9796 46.011 14.7213 44.8257 14.7213ZM34.2955 25.2515C34.2955 21.5135 35.1768 18.5808 36.9394 16.4535C38.7325 14.3262 41.3309 13.2625 44.7346 13.2625C46.3453 13.2625 47.728 13.5208 48.8829 14.0375C50.0681 14.5237 51.0558 15.1923 51.8459 16.0432C52.6361 16.8638 53.2135 17.8363 53.5782 18.9607C53.9733 20.0852 54.1708 21.2856 54.1708 22.562C54.1708 22.8659 54.1556 23.1698 54.1252 23.4737C54.1252 23.7472 54.11 24.0359 54.0796 24.3398C52.4385 24.3094 50.8127 24.279 49.202 24.2487C47.5913 24.2183 45.9654 24.2031 44.3243 24.2031C43.3214 24.2031 42.3185 24.2183 41.3157 24.2487C40.3432 24.279 39.3555 24.3094 38.3526 24.3398C38.3222 24.4918 38.307 24.7197 38.307 25.0236V25.6162C38.307 26.8014 38.4742 27.9107 38.8084 28.944C39.1731 29.9772 39.6898 30.8738 40.3584 31.6335C41.0269 32.3629 41.8475 32.9555 42.82 33.4114C43.7925 33.8368 44.9169 34.0496 46.1933 34.0496C46.8011 34.0496 47.4241 33.9736 48.0623 33.8216C48.7005 33.6393 49.3235 33.4114 49.9313 33.1378C50.5391 32.8339 51.1014 32.4845 51.618 32.0894C52.165 31.6943 52.6361 31.2688 53.0312 30.813L53.2591 30.9497L52.9856 33.1834C52.0739 33.9128 50.9342 34.5358 49.5666 35.0524C48.2295 35.5691 46.8315 35.8274 45.3728 35.8274C43.7317 35.8274 42.2274 35.5843 40.8598 35.098C39.5226 34.5814 38.3526 33.852 37.3497 32.9099C36.3772 31.9374 35.6175 30.7978 35.0704 29.491C34.5538 28.1842 34.2955 26.7711 34.2955 25.2515Z" stroke="url(#paint6_linear)" stroke-opacity="0.7" stroke-width="0.586667" mask="url(#path-1-outside-1)"/>
    <path d="M66.3938 35.3715C64.9958 31.7855 63.5827 28.1994 62.1543 24.6133C60.7564 21.0273 59.2216 17.3956 57.5502 13.7184C57.9452 13.7792 58.3251 13.8399 58.6898 13.9007C59.0545 13.9311 59.4344 13.9463 59.8294 13.9463C60.1637 13.9463 60.498 13.9311 60.8323 13.9007C61.1666 13.8399 61.5009 13.7792 61.8352 13.7184C62.7773 16.727 63.7954 19.6901 64.8894 22.6076C66.0139 25.4947 67.2599 28.4577 68.6274 31.4968C69.2353 30.2508 69.8279 28.9136 70.4053 27.4852C71.0131 26.0265 71.6057 24.5222 72.1831 22.9723C72.7909 21.4223 73.3684 19.8724 73.9154 18.3225C74.4928 16.7422 75.055 15.2075 75.6021 13.7184C76.1491 13.8703 76.6201 13.9463 77.0152 13.9463C77.4103 13.9463 77.8813 13.8703 78.4284 13.7184C76.7873 17.3956 75.1766 21.0273 73.5963 24.6133C72.016 28.1994 70.5724 31.7855 69.2656 35.3715C68.8098 35.3108 68.3388 35.2804 67.8525 35.2804C67.3663 35.2804 66.88 35.3108 66.3938 35.3715Z" stroke="#FD6F1F" stroke-width="0.586667" mask="url(#path-1-outside-1)"/>
    <path d="M66.3938 35.3715C64.9958 31.7855 63.5827 28.1994 62.1543 24.6133C60.7564 21.0273 59.2216 17.3956 57.5502 13.7184C57.9452 13.7792 58.3251 13.8399 58.6898 13.9007C59.0545 13.9311 59.4344 13.9463 59.8294 13.9463C60.1637 13.9463 60.498 13.9311 60.8323 13.9007C61.1666 13.8399 61.5009 13.7792 61.8352 13.7184C62.7773 16.727 63.7954 19.6901 64.8894 22.6076C66.0139 25.4947 67.2599 28.4577 68.6274 31.4968C69.2353 30.2508 69.8279 28.9136 70.4053 27.4852C71.0131 26.0265 71.6057 24.5222 72.1831 22.9723C72.7909 21.4223 73.3684 19.8724 73.9154 18.3225C74.4928 16.7422 75.055 15.2075 75.6021 13.7184C76.1491 13.8703 76.6201 13.9463 77.0152 13.9463C77.4103 13.9463 77.8813 13.8703 78.4284 13.7184C76.7873 17.3956 75.1766 21.0273 73.5963 24.6133C72.016 28.1994 70.5724 31.7855 69.2656 35.3715C68.8098 35.3108 68.3388 35.2804 67.8525 35.2804C67.3663 35.2804 66.88 35.3108 66.3938 35.3715Z" stroke="url(#paint7_linear)" stroke-opacity="0.7" stroke-width="0.586667" mask="url(#path-1-outside-1)"/>
    <path d="M84.2908 9.00293H85.5471C85.7344 9.00293 85.9029 9.03527 86.0527 9.09996C86.2025 9.16465 86.3302 9.25318 86.4357 9.36553C86.5447 9.47789 86.6281 9.60727 86.686 9.75367C86.7439 9.90007 86.7728 10.055 86.7728 10.2184C86.7728 10.3478 86.7541 10.4738 86.7166 10.5963C86.6826 10.7155 86.6298 10.8245 86.5583 10.9232C86.4902 11.0219 86.4068 11.1104 86.3081 11.1888C86.2127 11.2637 86.1038 11.3215 85.9812 11.3624L86.7319 12.5779H86.2008L85.4909 11.439H84.7555V12.5779H84.2908V9.00293ZM85.5471 11.0151C85.6629 11.0151 85.7667 10.9947 85.8586 10.9538C85.954 10.9096 86.034 10.8517 86.0987 10.7802C86.1668 10.7087 86.2178 10.6253 86.2519 10.5299C86.2893 10.4312 86.3081 10.3274 86.3081 10.2184C86.3081 10.1129 86.2893 10.0124 86.2519 9.91709C86.2178 9.81836 86.1668 9.73324 86.0987 9.66174C86.034 9.58684 85.954 9.52896 85.8586 9.4881C85.7667 9.44384 85.6629 9.42171 85.5471 9.42171H84.7555V11.0151H85.5471Z" fill="#FD6F1F"/>
    <path d="M84.2908 9.00293H85.5471C85.7344 9.00293 85.9029 9.03527 86.0527 9.09996C86.2025 9.16465 86.3302 9.25318 86.4357 9.36553C86.5447 9.47789 86.6281 9.60727 86.686 9.75367C86.7439 9.90007 86.7728 10.055 86.7728 10.2184C86.7728 10.3478 86.7541 10.4738 86.7166 10.5963C86.6826 10.7155 86.6298 10.8245 86.5583 10.9232C86.4902 11.0219 86.4068 11.1104 86.3081 11.1888C86.2127 11.2637 86.1038 11.3215 85.9812 11.3624L86.7319 12.5779H86.2008L85.4909 11.439H84.7555V12.5779H84.2908V9.00293ZM85.5471 11.0151C85.6629 11.0151 85.7667 10.9947 85.8586 10.9538C85.954 10.9096 86.034 10.8517 86.0987 10.7802C86.1668 10.7087 86.2178 10.6253 86.2519 10.5299C86.2893 10.4312 86.3081 10.3274 86.3081 10.2184C86.3081 10.1129 86.2893 10.0124 86.2519 9.91709C86.2178 9.81836 86.1668 9.73324 86.0987 9.66174C86.034 9.58684 85.954 9.52896 85.8586 9.4881C85.7667 9.44384 85.6629 9.42171 85.5471 9.42171H84.7555V11.0151H85.5471Z" fill="url(#paint8_linear)" fill-opacity="0.7"/>
    <mask id="path-3-inside-2" fill="white">
        <path fill-rule="evenodd" clip-rule="evenodd" d="M85.3116 14.1368C87.1136 14.1368 88.5745 12.676 88.5745 10.874C88.5745 9.07196 87.1136 7.61114 85.3116 7.61114C83.5096 7.61114 82.0488 9.07196 82.0488 10.874C82.0488 12.676 83.5096 14.1368 85.3116 14.1368ZM85.3116 14.5624C87.3487 14.5624 89 12.9111 89 10.874C89 8.83692 87.3487 7.18555 85.3116 7.18555C83.2745 7.18555 81.6232 8.83692 81.6232 10.874C81.6232 12.9111 83.2745 14.5624 85.3116 14.5624Z"/>
    </mask>
    <path d="M85.1282 10.874C85.1282 10.7727 85.2103 10.6906 85.3116 10.6906V17.5831C89.0169 17.5831 92.0207 14.5793 92.0207 10.874H85.1282ZM85.3116 11.0574C85.2103 11.0574 85.1282 10.9753 85.1282 10.874H92.0207C92.0207 7.16867 89.0169 4.16492 85.3116 4.16492V11.0574ZM85.495 10.874C85.495 10.9753 85.4129 11.0574 85.3116 11.0574V4.16492C81.6063 4.16492 78.6025 7.16867 78.6025 10.874H85.495ZM85.3116 10.6906C85.4129 10.6906 85.495 10.7727 85.495 10.874H78.6025C78.6025 14.5793 81.6063 17.5831 85.3116 17.5831V10.6906ZM85.5538 10.874C85.5538 11.0078 85.4454 11.1162 85.3116 11.1162V18.0086C89.252 18.0086 92.4463 14.8143 92.4463 10.874H85.5538ZM85.3116 10.6318C85.4454 10.6318 85.5538 10.7402 85.5538 10.874H92.4463C92.4463 6.93362 89.252 3.73933 85.3116 3.73933V10.6318ZM85.0694 10.874C85.0694 10.7402 85.1778 10.6318 85.3116 10.6318V3.73933C81.3712 3.73933 78.177 6.93362 78.177 10.874H85.0694ZM85.3116 11.1162C85.1778 11.1162 85.0694 11.0078 85.0694 10.874H78.177C78.177 14.8143 81.3712 18.0086 85.3116 18.0086V11.1162Z" fill="#FD6F1F" mask="url(#path-3-inside-2)"/>
    <path d="M85.1282 10.874C85.1282 10.7727 85.2103 10.6906 85.3116 10.6906V17.5831C89.0169 17.5831 92.0207 14.5793 92.0207 10.874H85.1282ZM85.3116 11.0574C85.2103 11.0574 85.1282 10.9753 85.1282 10.874H92.0207C92.0207 7.16867 89.0169 4.16492 85.3116 4.16492V11.0574ZM85.495 10.874C85.495 10.9753 85.4129 11.0574 85.3116 11.0574V4.16492C81.6063 4.16492 78.6025 7.16867 78.6025 10.874H85.495ZM85.3116 10.6906C85.4129 10.6906 85.495 10.7727 85.495 10.874H78.6025C78.6025 14.5793 81.6063 17.5831 85.3116 17.5831V10.6906ZM85.5538 10.874C85.5538 11.0078 85.4454 11.1162 85.3116 11.1162V18.0086C89.252 18.0086 92.4463 14.8143 92.4463 10.874H85.5538ZM85.3116 10.6318C85.4454 10.6318 85.5538 10.7402 85.5538 10.874H92.4463C92.4463 6.93362 89.252 3.73933 85.3116 3.73933V10.6318ZM85.0694 10.874C85.0694 10.7402 85.1778 10.6318 85.3116 10.6318V3.73933C81.3712 3.73933 78.177 6.93362 78.177 10.874H85.0694ZM85.3116 11.1162C85.1778 11.1162 85.0694 11.0078 85.0694 10.874H78.177C78.177 14.8143 81.3712 18.0086 85.3116 18.0086V11.1162Z" fill="url(#paint9_linear)" fill-opacity="0.7" mask="url(#path-3-inside-2)"/>
    <defs>
        <linearGradient id="paint0_linear" x1="0.999998" y1="35.8274" x2="76.6614" y2="-2.48917" gradientUnits="userSpaceOnUse">
            <stop stop-color="#E27357"/>
            <stop offset="1" stop-color="#F79B5E"/>
        </linearGradient>
        <linearGradient id="paint1_linear" x1="0.999998" y1="35.8274" x2="76.6614" y2="-2.48917" gradientUnits="userSpaceOnUse">
            <stop stop-color="#E27357"/>
            <stop offset="1" stop-color="#F79B5E"/>
        </linearGradient>
        <linearGradient id="paint2_linear" x1="0.999998" y1="35.8274" x2="76.6614" y2="-2.48917" gradientUnits="userSpaceOnUse">
            <stop stop-color="#E27357"/>
            <stop offset="1" stop-color="#F79B5E"/>
        </linearGradient>
        <linearGradient id="paint3_linear" x1="0.999998" y1="35.8274" x2="76.6614" y2="-2.48917" gradientUnits="userSpaceOnUse">
            <stop stop-color="#E27357"/>
            <stop offset="1" stop-color="#F79B5E"/>
        </linearGradient>
        <linearGradient id="paint4_linear" x1="0.999998" y1="35.8274" x2="76.6614" y2="-2.48917" gradientUnits="userSpaceOnUse">
            <stop stop-color="#E27357"/>
            <stop offset="1" stop-color="#F79B5E"/>
        </linearGradient>
        <linearGradient id="paint5_linear" x1="0.999998" y1="35.8274" x2="76.6614" y2="-2.48917" gradientUnits="userSpaceOnUse">
            <stop stop-color="#E27357"/>
            <stop offset="1" stop-color="#F79B5E"/>
        </linearGradient>
        <linearGradient id="paint6_linear" x1="0.999998" y1="35.8274" x2="76.6614" y2="-2.48917" gradientUnits="userSpaceOnUse">
            <stop stop-color="#E27357"/>
            <stop offset="1" stop-color="#F79B5E"/>
        </linearGradient>
        <linearGradient id="paint7_linear" x1="0.999998" y1="35.8274" x2="76.6614" y2="-2.48917" gradientUnits="userSpaceOnUse">
            <stop stop-color="#E27357"/>
            <stop offset="1" stop-color="#F79B5E"/>
        </linearGradient>
        <linearGradient id="paint8_linear" x1="84.2908" y1="12.5779" x2="87.2638" y2="12.1077" gradientUnits="userSpaceOnUse">
            <stop stop-color="#E27357"/>
            <stop offset="1" stop-color="#F79B5E"/>
        </linearGradient>
        <linearGradient id="paint9_linear" x1="81.6232" y1="14.5624" x2="90.2336" y2="12.601" gradientUnits="userSpaceOnUse">
            <stop stop-color="#E27357"/>
            <stop offset="1" stop-color="#F79B5E"/>
        </linearGradient>
    </defs>
</svg>
