<svg width="35" height="35" viewBox="0 0 35 35" fill="none" xmlns="http://www.w3.org/2000/svg">
<path d="M6.39516 12.1408C5.98496 12.6262 5.32863 13.0091 4.67231 12.9544C4.59027 12.2981 4.91159 11.6007 5.28761 11.17C5.69781 10.6709 6.41567 10.3154 6.99679 10.2881C7.06516 10.9718 6.79853 11.6418 6.39516 12.1408ZM6.98996 13.0843C6.03965 13.0296 5.22608 13.6244 4.77486 13.6244C4.3168 13.6244 3.62629 13.1117 2.87425 13.1253C1.8966 13.139 0.987315 13.6928 0.488234 14.5747C-0.537274 16.3386 0.221602 18.9502 1.21293 20.3859C1.69833 21.0969 2.27945 21.8763 3.04517 21.849C3.76986 21.8216 4.057 21.3772 4.9321 21.3772C5.81404 21.3772 6.067 21.849 6.83271 21.8353C7.62577 21.8216 8.12485 21.1243 8.61026 20.4133C9.16403 19.6065 9.38964 18.8203 9.40332 18.7793C9.38964 18.7656 7.87189 18.1845 7.85822 16.4343C7.84455 14.9712 9.05464 14.2739 9.10934 14.2329C8.42567 13.221 7.35914 13.1117 6.98996 13.0843ZM12.4798 11.1017V21.7601H14.1343V18.1161H16.4246C18.5167 18.1161 19.9866 16.6804 19.9866 14.6021C19.9866 12.5237 18.544 11.1017 16.4793 11.1017H12.4798ZM14.1343 12.4963H16.0418C17.4775 12.4963 18.2979 13.2621 18.2979 14.6089C18.2979 15.9557 17.4775 16.7283 16.0349 16.7283H14.1343V12.4963ZM23.0084 21.8421C24.0476 21.8421 25.0116 21.3157 25.4491 20.4816H25.4833V21.7601H27.0147V16.4548C27.0147 14.9165 25.7841 13.9252 23.8903 13.9252C22.1333 13.9252 20.8343 14.9302 20.7865 16.3112H22.2769C22.3999 15.6549 23.0084 15.2242 23.8425 15.2242C24.8543 15.2242 25.4218 15.6959 25.4218 16.5642V17.1522L23.3571 17.2752C21.4359 17.3914 20.3968 18.1777 20.3968 19.545C20.3968 20.926 21.4701 21.8421 23.0084 21.8421ZM23.4528 20.5774C22.5708 20.5774 22.0102 20.1535 22.0102 19.504C22.0102 18.834 22.5503 18.4443 23.5827 18.3828L25.4218 18.2665V18.8682C25.4218 19.8663 24.574 20.5774 23.4528 20.5774ZM29.0589 24.6589C30.6724 24.6589 31.4312 24.0436 32.0944 22.1771L35 14.0278H33.3182L31.3697 20.3244H31.3355L29.3871 14.0278H27.6574L30.4604 21.7875L30.31 22.2592C30.0571 23.0591 29.6468 23.3667 28.9153 23.3667C28.7854 23.3667 28.5325 23.3531 28.4299 23.3394V24.6179C28.5256 24.6452 28.9358 24.6589 29.0589 24.6589Z" fill="white"/>
</svg>
