<svg width="35" height="65" viewBox="0 0 35 65" fill="none" xmlns="http://www.w3.org/2000/svg">
<g clip-path="url(#clip0_1_5)">
<path d="M16.5536 32.3417V36.4145H15.2605V26.3541H18.6883C19.5151 26.3366 20.3142 26.6503 20.9079 27.225C21.509 27.766 21.8477 28.5401 21.8345 29.3479C21.8521 30.1616 21.5134 30.9415 20.9079 31.484C20.3083 32.0558 19.5679 32.3417 18.6883 32.3402L16.5536 32.3417ZM16.5536 27.593V31.1057H18.7205C19.2014 31.1204 19.6647 30.9313 19.999 30.5853C20.6778 29.9255 20.6939 28.8392 20.0327 28.1604C20.0209 28.1486 20.0107 28.1369 19.999 28.1266C19.6691 27.7733 19.2029 27.5798 18.7205 27.593H16.5536ZM24.8136 29.3069C25.7695 29.3069 26.5231 29.562 27.0758 30.0722C27.6285 30.5824 27.9041 31.2831 27.9041 32.1716V36.4145H26.6682V35.4586H26.6125C26.0774 36.2459 25.3648 36.6388 24.4764 36.6388C23.7184 36.6388 23.0836 36.4145 22.5734 35.9644C22.0779 35.5465 21.7964 34.9278 21.8081 34.2784C21.8081 33.5658 22.0779 32.9999 22.6159 32.5792C23.154 32.1584 23.8724 31.9473 24.7725 31.9473C25.5393 31.9473 26.1727 32.088 26.6682 32.3681V32.0719C26.6711 31.6291 26.4747 31.2098 26.1345 30.9284C25.7929 30.6205 25.3473 30.4519 24.8869 30.4577C24.1656 30.4577 23.5938 30.7627 23.173 31.3711L22.0354 30.6542C22.6599 29.7555 23.5865 29.3069 24.8136 29.3069ZM23.1408 34.3077C23.1393 34.642 23.2991 34.9557 23.5689 35.1507C23.8548 35.375 24.2096 35.4952 24.5732 35.4879C25.1185 35.4864 25.6419 35.2694 26.0275 34.8839C26.4556 34.4807 26.6697 34.0086 26.6697 33.4647C26.2665 33.1436 25.705 32.9823 24.9837 32.9823C24.4588 32.9823 24.0204 33.1084 23.67 33.3621C23.3167 33.6201 23.1408 33.9324 23.1408 34.3077ZM35 29.5312L30.6853 39.4493H29.3512L30.9521 35.979L28.1138 29.5312H29.5183L31.5693 34.4763H31.5972L33.5926 29.5312H35Z" fill="white"/>
<path d="M11.33 31.462C11.33 31.0676 11.2977 30.6747 11.2303 30.2862H5.77933V32.5117H8.90064C8.77162 33.2301 8.35525 33.8649 7.74683 34.2681V35.7137H9.61023C10.701 34.7094 11.33 33.2213 11.33 31.462Z" fill="#4285F4"/>
<path d="M5.77933 37.1109C7.33925 37.1109 8.65287 36.5992 9.61023 35.7151L7.74683 34.2696C7.22783 34.6214 6.56076 34.8223 5.77933 34.8223C4.27219 34.8223 2.99229 33.8063 2.53487 32.437H0.615757V33.9265C1.59657 35.8793 3.59485 37.1109 5.77933 37.1109Z" fill="#34A853"/>
<path d="M2.53487 32.437C2.29297 31.72 2.29297 30.9415 2.53487 30.2246V28.7351H0.615758C-0.205253 30.3683 -0.205253 32.2933 0.615758 33.9265L2.53487 32.437Z" fill="#FBBC04"/>
<path d="M5.77933 27.8393C6.60327 27.8261 7.39936 28.1369 7.99606 28.7058L9.64688 27.0564C8.60009 26.0741 7.21463 25.5346 5.77933 25.5507C3.59485 25.5507 1.59657 26.7837 0.615757 28.7351L2.53487 30.2246C2.99229 28.8553 4.27219 27.8393 5.77933 27.8393Z" fill="#EA4335"/>
</g>
<defs>
<clipPath id="clip0_1_5">
<rect width="35" height="65" fill="white"/>
</clipPath>
</defs>
</svg>
